<svg width="449" height="375" viewBox="0 0 449 375" fill="none" xmlns="http://www.w3.org/2000/svg">
<path d="M190.278 0C188.469 0 187 1.46904 187 3.27795C187 5.08686 188.469 6.55592 190.278 6.55592C192.087 6.55592 193.556 5.08686 193.556 3.27795C193.556 1.46904 192.087 0 190.278 0Z" fill="#CFCFCF"/>
<path d="M207.802 0C205.994 0 204.524 1.46904 204.524 3.27795C204.524 5.08686 205.994 6.55592 207.802 6.55592C209.611 6.55592 211.08 5.08686 211.08 3.27795C211.08 1.46904 209.611 0 207.802 0Z" fill="#CFCFCF"/>
<path d="M225.321 0C223.512 0 222.043 1.46904 222.043 3.27795C222.043 5.08686 223.512 6.55592 225.321 6.55592C227.13 6.55592 228.599 5.08686 228.599 3.27795C228.605 1.46904 227.136 0 225.321 0Z" fill="#CFCFCF"/>
<path d="M242.846 0C241.037 0 239.568 1.46904 239.568 3.27795C239.568 5.08686 241.037 6.55592 242.846 6.55592C244.655 6.55592 246.124 5.08686 246.124 3.27795C246.124 1.46904 244.655 0 242.846 0Z" fill="#CFCFCF"/>
<path d="M260.365 6.5613C262.174 6.5613 263.643 5.09225 263.643 3.28334C263.643 1.47443 262.174 0.00537109 260.365 0.00537109C258.556 0.00537109 257.087 1.47443 257.087 3.28334C257.087 5.09225 258.556 6.5613 260.365 6.5613Z" fill="#CFCFCF"/>
<path d="M190.278 17.5244C188.469 17.5244 187 18.9935 187 20.8024C187 22.6113 188.469 24.0803 190.278 24.0803C192.087 24.0803 193.556 22.6113 193.556 20.8024C193.556 18.9935 192.087 17.5244 190.278 17.5244Z" fill="#CFCFCF"/>
<path d="M207.802 17.5244C205.994 17.5244 204.524 18.9935 204.524 20.8024C204.524 22.6113 205.994 24.0803 207.802 24.0803C209.611 24.0803 211.08 22.6113 211.08 20.8024C211.08 18.9935 209.611 17.5244 207.802 17.5244Z" fill="#CFCFCF"/>
<path d="M225.321 17.5244C223.512 17.5244 222.043 18.9935 222.043 20.8024C222.043 22.6113 223.512 24.0803 225.321 24.0803C227.13 24.0803 228.599 22.6113 228.599 20.8024C228.605 18.9935 227.136 17.5244 225.321 17.5244Z" fill="#CFCFCF"/>
<path d="M242.846 17.5244C241.037 17.5244 239.568 18.9935 239.568 20.8024C239.568 22.6113 241.037 24.0803 242.846 24.0803C244.655 24.0803 246.124 22.6113 246.124 20.8024C246.124 18.9935 244.655 17.5244 242.846 17.5244Z" fill="#CFCFCF"/>
<path d="M260.365 17.5244C258.556 17.5244 257.087 18.9935 257.087 20.8024C257.087 22.6113 258.556 24.0803 260.365 24.0803C262.174 24.0803 263.643 22.6113 263.643 20.8024C263.648 18.9935 262.179 17.5244 260.365 17.5244Z" fill="#CFCFCF"/>
<path d="M190.278 35.0435C188.469 35.0435 187 36.5125 187 38.3214C187 40.1303 188.469 41.5994 190.278 41.5994C192.087 41.5994 193.556 40.1303 193.556 38.3214C193.556 36.5125 192.087 35.0435 190.278 35.0435Z" fill="#CFCFCF"/>
<path d="M207.802 35.0435C205.994 35.0435 204.524 36.5125 204.524 38.3214C204.524 40.1303 205.994 41.5994 207.802 41.5994C209.611 41.5994 211.08 40.1303 211.08 38.3214C211.08 36.5125 209.611 35.0435 207.802 35.0435Z" fill="#CFCFCF"/>
<path d="M225.321 35.0435C223.512 35.0435 222.043 36.5125 222.043 38.3214C222.043 40.1303 223.512 41.5994 225.321 41.5994C227.13 41.5994 228.599 40.1303 228.599 38.3214C228.605 36.5125 227.136 35.0435 225.321 35.0435Z" fill="#CFCFCF"/>
<path d="M242.846 35.0435C241.037 35.0435 239.568 36.5125 239.568 38.3214C239.568 40.1303 241.037 41.5994 242.846 41.5994C244.655 41.5994 246.124 40.1303 246.124 38.3214C246.124 36.5125 244.655 35.0435 242.846 35.0435Z" fill="#CFCFCF"/>
<path d="M260.365 35.0435C258.556 35.0435 257.087 36.5125 257.087 38.3214C257.087 40.1303 258.556 41.5994 260.365 41.5994C262.174 41.5994 263.643 40.1303 263.643 38.3214C263.648 36.5125 262.179 35.0435 260.365 35.0435Z" fill="#CFCFCF"/>
<path d="M190.278 52.5679C188.469 52.5679 187 54.0369 187 55.8458C187 57.6547 188.469 59.1238 190.278 59.1238C192.087 59.1238 193.556 57.6547 193.556 55.8458C193.556 54.0369 192.087 52.5679 190.278 52.5679Z" fill="#CFCFCF"/>
<path d="M207.802 52.5679C205.994 52.5679 204.524 54.0369 204.524 55.8458C204.524 57.6547 205.994 59.1238 207.802 59.1238C209.611 59.1238 211.08 57.6547 211.08 55.8458C211.08 54.0369 209.611 52.5679 207.802 52.5679Z" fill="#CFCFCF"/>
<path d="M225.321 52.5679C223.512 52.5679 222.043 54.0369 222.043 55.8458C222.043 57.6547 223.512 59.1238 225.321 59.1238C227.13 59.1238 228.599 57.6547 228.599 55.8458C228.605 54.0369 227.136 52.5679 225.321 52.5679Z" fill="#CFCFCF"/>
<path d="M242.846 52.5679C241.037 52.5679 239.568 54.0369 239.568 55.8458C239.568 57.6547 241.037 59.1238 242.846 59.1238C244.655 59.1238 246.124 57.6547 246.124 55.8458C246.124 54.0369 244.655 52.5679 242.846 52.5679Z" fill="#CFCFCF"/>
<path d="M260.365 52.5679C258.556 52.5679 257.087 54.0369 257.087 55.8458C257.087 57.6547 258.556 59.1238 260.365 59.1238C262.174 59.1238 263.643 57.6547 263.643 55.8458C263.648 54.0369 262.179 52.5679 260.365 52.5679Z" fill="#CFCFCF"/>
<path d="M190.278 70.0925C188.469 70.0925 187 71.5616 187 73.3705C187 75.1794 188.469 76.6484 190.278 76.6484C192.087 76.6484 193.556 75.1794 193.556 73.3705C193.556 71.5561 192.087 70.0925 190.278 70.0925Z" fill="#CFCFCF"/>
<path d="M207.802 70.0925C205.994 70.0925 204.524 71.5616 204.524 73.3705C204.524 75.1794 205.994 76.6484 207.802 76.6484C209.611 76.6484 211.08 75.1794 211.08 73.3705C211.08 71.5561 209.611 70.0925 207.802 70.0925Z" fill="#CFCFCF"/>
<path d="M225.321 70.0925C223.512 70.0925 222.043 71.5616 222.043 73.3705C222.043 75.1794 223.512 76.6484 225.321 76.6484C227.13 76.6484 228.599 75.1794 228.599 73.3705C228.605 71.5561 227.136 70.0925 225.321 70.0925Z" fill="#CFCFCF"/>
<path d="M242.846 70.0925C241.037 70.0925 239.568 71.5616 239.568 73.3705C239.568 75.1794 241.037 76.6484 242.846 76.6484C244.655 76.6484 246.124 75.1794 246.124 73.3705C246.124 71.5561 244.655 70.0925 242.846 70.0925Z" fill="#CFCFCF"/>
<path d="M260.365 70.0925C258.556 70.0925 257.087 71.5616 257.087 73.3705C257.087 75.1794 258.556 76.6484 260.365 76.6484C262.174 76.6484 263.643 75.1794 263.643 73.3705C263.648 71.5561 262.179 70.0925 260.365 70.0925Z" fill="#CFCFCF"/>
<path d="M190.278 87.6113C188.469 87.6113 187 89.0804 187 90.8893C187 92.6982 188.469 94.1672 190.278 94.1672C192.087 94.1672 193.556 92.6982 193.556 90.8893C193.556 89.0804 192.087 87.6113 190.278 87.6113Z" fill="#CFCFCF"/>
<path d="M207.802 87.6113C205.994 87.6113 204.524 89.0804 204.524 90.8893C204.524 92.6982 205.994 94.1672 207.802 94.1672C209.611 94.1672 211.08 92.6982 211.08 90.8893C211.08 89.0804 209.611 87.6113 207.802 87.6113Z" fill="#CFCFCF"/>
<path d="M225.321 87.6113C223.512 87.6113 222.043 89.0804 222.043 90.8893C222.043 92.6982 223.512 94.1672 225.321 94.1672C227.13 94.1672 228.599 92.6982 228.599 90.8893C228.605 89.0804 227.136 87.6113 225.321 87.6113Z" fill="#CFCFCF"/>
<path d="M242.846 87.6113C241.037 87.6113 239.568 89.0804 239.568 90.8893C239.568 92.6982 241.037 94.1672 242.846 94.1672C244.655 94.1672 246.124 92.6982 246.124 90.8893C246.124 89.0804 244.655 87.6113 242.846 87.6113Z" fill="#CFCFCF"/>
<path d="M260.365 87.6113C258.556 87.6113 257.087 89.0804 257.087 90.8893C257.087 92.6982 258.556 94.1672 260.365 94.1672C262.174 94.1672 263.643 92.6982 263.643 90.8893C263.648 89.0804 262.179 87.6113 260.365 87.6113Z" fill="#CFCFCF"/>
<path d="M190.278 105.136C188.469 105.136 187 106.605 187 108.414C187 110.223 188.469 111.692 190.278 111.692C192.087 111.692 193.556 110.223 193.556 108.414C193.556 106.605 192.087 105.136 190.278 105.136Z" fill="#CFCFCF"/>
<path d="M207.802 105.136C205.994 105.136 204.524 106.605 204.524 108.414C204.524 110.223 205.994 111.692 207.802 111.692C209.611 111.692 211.08 110.223 211.08 108.414C211.08 106.605 209.611 105.136 207.802 105.136Z" fill="#CFCFCF"/>
<path d="M225.321 105.136C223.512 105.136 222.043 106.605 222.043 108.414C222.043 110.223 223.512 111.692 225.321 111.692C227.13 111.692 228.599 110.223 228.599 108.414C228.605 106.605 227.136 105.136 225.321 105.136Z" fill="#CFCFCF"/>
<path d="M242.846 105.136C241.037 105.136 239.568 106.605 239.568 108.414C239.568 110.223 241.037 111.692 242.846 111.692C244.655 111.692 246.124 110.223 246.124 108.414C246.124 106.605 244.655 105.136 242.846 105.136Z" fill="#CFCFCF"/>
<path d="M260.365 105.136C258.556 105.136 257.087 106.605 257.087 108.414C257.087 110.223 258.556 111.692 260.365 111.692C262.174 111.692 263.643 110.223 263.643 108.414C263.648 106.605 262.179 105.136 260.365 105.136Z" fill="#CFCFCF"/>
<path d="M190.278 122.655C188.469 122.655 187 124.124 187 125.933C187 127.742 188.469 129.211 190.278 129.211C192.087 129.211 193.556 127.742 193.556 125.933C193.556 124.124 192.087 122.655 190.278 122.655Z" fill="#CFCFCF"/>
<path d="M207.802 122.655C205.994 122.655 204.524 124.124 204.524 125.933C204.524 127.742 205.994 129.211 207.802 129.211C209.611 129.211 211.08 127.742 211.08 125.933C211.08 124.124 209.611 122.655 207.802 122.655Z" fill="#CFCFCF"/>
<path d="M225.321 122.655C223.512 122.655 222.043 124.124 222.043 125.933C222.043 127.742 223.512 129.211 225.321 129.211C227.13 129.211 228.599 127.742 228.599 125.933C228.605 124.124 227.136 122.655 225.321 122.655Z" fill="#CFCFCF"/>
<path d="M242.846 122.655C241.037 122.655 239.568 124.124 239.568 125.933C239.568 127.742 241.037 129.211 242.846 129.211C244.655 129.211 246.124 127.742 246.124 125.933C246.124 124.124 244.655 122.655 242.846 122.655Z" fill="#CFCFCF"/>
<path d="M260.365 122.655C258.556 122.655 257.087 124.124 257.087 125.933C257.087 127.742 258.556 129.211 260.365 129.211C262.174 129.211 263.643 127.742 263.643 125.933C263.648 124.124 262.179 122.655 260.365 122.655Z" fill="#CFCFCF"/>
<path d="M190.278 140.179C188.469 140.179 187 141.648 187 143.457C187 145.266 188.469 146.735 190.278 146.735C192.087 146.735 193.556 145.266 193.556 143.457C193.556 141.648 192.087 140.179 190.278 140.179Z" fill="#CFCFCF"/>
<path d="M207.802 140.179C205.994 140.179 204.524 141.648 204.524 143.457C204.524 145.266 205.994 146.735 207.802 146.735C209.611 146.735 211.08 145.266 211.08 143.457C211.08 141.648 209.611 140.179 207.802 140.179Z" fill="#CFCFCF"/>
<path d="M225.321 140.179C223.512 140.179 222.043 141.648 222.043 143.457C222.043 145.266 223.512 146.735 225.321 146.735C227.13 146.735 228.599 145.266 228.599 143.457C228.599 141.648 227.136 140.179 225.321 140.179Z" fill="#CFCFCF"/>
<path d="M242.846 140.179C241.037 140.179 239.568 141.648 239.568 143.457C239.568 145.266 241.037 146.735 242.846 146.735C244.655 146.735 246.124 145.266 246.124 143.457C246.124 141.648 244.655 140.179 242.846 140.179Z" fill="#CFCFCF"/>
<path d="M260.365 140.179C258.556 140.179 257.087 141.648 257.087 143.457C257.087 145.266 258.556 146.735 260.365 146.735C262.174 146.735 263.643 145.266 263.643 143.457C263.643 141.648 262.179 140.179 260.365 140.179Z" fill="#CFCFCF"/>
<path d="M190.278 212C188.469 212 187 213.469 187 215.278C187 217.087 188.469 218.556 190.278 218.556C192.087 218.556 193.556 217.087 193.556 215.278C193.556 213.469 192.087 212 190.278 212Z" fill="#CFCFCF"/>
<path d="M207.802 212C205.994 212 204.524 213.469 204.524 215.278C204.524 217.087 205.994 218.556 207.802 218.556C209.611 218.556 211.08 217.087 211.08 215.278C211.08 213.469 209.611 212 207.802 212Z" fill="#CFCFCF"/>
<path d="M225.321 212C223.512 212 222.043 213.469 222.043 215.278C222.043 217.087 223.512 218.556 225.321 218.556C227.13 218.556 228.599 217.087 228.599 215.278C228.605 213.469 227.136 212 225.321 212Z" fill="#CFCFCF"/>
<path d="M242.846 212C241.037 212 239.568 213.469 239.568 215.278C239.568 217.087 241.037 218.556 242.846 218.556C244.655 218.556 246.124 217.087 246.124 215.278C246.124 213.469 244.655 212 242.846 212Z" fill="#CFCFCF"/>
<path d="M260.365 218.561C262.174 218.561 263.643 217.092 263.643 215.283C263.643 213.474 262.174 212.005 260.365 212.005C258.556 212.005 257.087 213.474 257.087 215.283C257.087 217.092 258.556 218.561 260.365 218.561Z" fill="#CFCFCF"/>
<path d="M190.278 229.524C188.469 229.524 187 230.993 187 232.802C187 234.611 188.469 236.08 190.278 236.08C192.087 236.08 193.556 234.611 193.556 232.802C193.556 230.993 192.087 229.524 190.278 229.524Z" fill="#CFCFCF"/>
<path d="M207.802 229.524C205.994 229.524 204.524 230.993 204.524 232.802C204.524 234.611 205.994 236.08 207.802 236.08C209.611 236.08 211.08 234.611 211.08 232.802C211.08 230.993 209.611 229.524 207.802 229.524Z" fill="#CFCFCF"/>
<path d="M225.321 229.524C223.512 229.524 222.043 230.993 222.043 232.802C222.043 234.611 223.512 236.08 225.321 236.08C227.13 236.08 228.599 234.611 228.599 232.802C228.605 230.993 227.136 229.524 225.321 229.524Z" fill="#CFCFCF"/>
<path d="M242.846 229.524C241.037 229.524 239.568 230.993 239.568 232.802C239.568 234.611 241.037 236.08 242.846 236.08C244.655 236.08 246.124 234.611 246.124 232.802C246.124 230.993 244.655 229.524 242.846 229.524Z" fill="#CFCFCF"/>
<path d="M260.365 229.524C258.556 229.524 257.087 230.993 257.087 232.802C257.087 234.611 258.556 236.08 260.365 236.08C262.174 236.08 263.643 234.611 263.643 232.802C263.648 230.993 262.179 229.524 260.365 229.524Z" fill="#CFCFCF"/>
<path d="M190.278 247.043C188.469 247.043 187 248.512 187 250.321C187 252.13 188.469 253.599 190.278 253.599C192.087 253.599 193.556 252.13 193.556 250.321C193.556 248.512 192.087 247.043 190.278 247.043Z" fill="#CFCFCF"/>
<path d="M207.802 247.043C205.994 247.043 204.524 248.512 204.524 250.321C204.524 252.13 205.994 253.599 207.802 253.599C209.611 253.599 211.08 252.13 211.08 250.321C211.08 248.512 209.611 247.043 207.802 247.043Z" fill="#CFCFCF"/>
<path d="M225.321 247.043C223.512 247.043 222.043 248.512 222.043 250.321C222.043 252.13 223.512 253.599 225.321 253.599C227.13 253.599 228.599 252.13 228.599 250.321C228.605 248.512 227.136 247.043 225.321 247.043Z" fill="#CFCFCF"/>
<path d="M242.846 247.043C241.037 247.043 239.568 248.512 239.568 250.321C239.568 252.13 241.037 253.599 242.846 253.599C244.655 253.599 246.124 252.13 246.124 250.321C246.124 248.512 244.655 247.043 242.846 247.043Z" fill="#CFCFCF"/>
<path d="M260.365 247.043C258.556 247.043 257.087 248.512 257.087 250.321C257.087 252.13 258.556 253.599 260.365 253.599C262.174 253.599 263.643 252.13 263.643 250.321C263.648 248.512 262.179 247.043 260.365 247.043Z" fill="#CFCFCF"/>
<path d="M190.278 264.568C188.469 264.568 187 266.037 187 267.846C187 269.655 188.469 271.124 190.278 271.124C192.087 271.124 193.556 269.655 193.556 267.846C193.556 266.037 192.087 264.568 190.278 264.568Z" fill="#CFCFCF"/>
<path d="M207.802 264.568C205.994 264.568 204.524 266.037 204.524 267.846C204.524 269.655 205.994 271.124 207.802 271.124C209.611 271.124 211.08 269.655 211.08 267.846C211.08 266.037 209.611 264.568 207.802 264.568Z" fill="#CFCFCF"/>
<path d="M225.321 264.568C223.512 264.568 222.043 266.037 222.043 267.846C222.043 269.655 223.512 271.124 225.321 271.124C227.13 271.124 228.599 269.655 228.599 267.846C228.605 266.037 227.136 264.568 225.321 264.568Z" fill="#CFCFCF"/>
<path d="M242.846 264.568C241.037 264.568 239.568 266.037 239.568 267.846C239.568 269.655 241.037 271.124 242.846 271.124C244.655 271.124 246.124 269.655 246.124 267.846C246.124 266.037 244.655 264.568 242.846 264.568Z" fill="#CFCFCF"/>
<path d="M260.365 264.568C258.556 264.568 257.087 266.037 257.087 267.846C257.087 269.655 258.556 271.124 260.365 271.124C262.174 271.124 263.643 269.655 263.643 267.846C263.648 266.037 262.179 264.568 260.365 264.568Z" fill="#CFCFCF"/>
<path d="M190.278 282.093C188.469 282.093 187 283.562 187 285.37C187 287.179 188.469 288.648 190.278 288.648C192.087 288.648 193.556 287.179 193.556 285.37C193.556 283.556 192.087 282.093 190.278 282.093Z" fill="#CFCFCF"/>
<path d="M207.802 282.093C205.994 282.093 204.524 283.562 204.524 285.37C204.524 287.179 205.994 288.648 207.802 288.648C209.611 288.648 211.08 287.179 211.08 285.37C211.08 283.556 209.611 282.093 207.802 282.093Z" fill="#CFCFCF"/>
<path d="M225.321 282.093C223.512 282.093 222.043 283.562 222.043 285.37C222.043 287.179 223.512 288.648 225.321 288.648C227.13 288.648 228.599 287.179 228.599 285.37C228.605 283.556 227.136 282.093 225.321 282.093Z" fill="#CFCFCF"/>
<path d="M242.846 282.093C241.037 282.093 239.568 283.562 239.568 285.37C239.568 287.179 241.037 288.648 242.846 288.648C244.655 288.648 246.124 287.179 246.124 285.37C246.124 283.556 244.655 282.093 242.846 282.093Z" fill="#CFCFCF"/>
<path d="M260.365 282.093C258.556 282.093 257.087 283.562 257.087 285.37C257.087 287.179 258.556 288.648 260.365 288.648C262.174 288.648 263.643 287.179 263.643 285.37C263.648 283.556 262.179 282.093 260.365 282.093Z" fill="#CFCFCF"/>
<path d="M190.278 299.611C188.469 299.611 187 301.08 187 302.889C187 304.698 188.469 306.167 190.278 306.167C192.087 306.167 193.556 304.698 193.556 302.889C193.556 301.08 192.087 299.611 190.278 299.611Z" fill="#CFCFCF"/>
<path d="M207.802 299.611C205.994 299.611 204.524 301.08 204.524 302.889C204.524 304.698 205.994 306.167 207.802 306.167C209.611 306.167 211.08 304.698 211.08 302.889C211.08 301.08 209.611 299.611 207.802 299.611Z" fill="#CFCFCF"/>
<path d="M225.321 299.611C223.512 299.611 222.043 301.08 222.043 302.889C222.043 304.698 223.512 306.167 225.321 306.167C227.13 306.167 228.599 304.698 228.599 302.889C228.605 301.08 227.136 299.611 225.321 299.611Z" fill="#CFCFCF"/>
<path d="M242.846 299.611C241.037 299.611 239.568 301.08 239.568 302.889C239.568 304.698 241.037 306.167 242.846 306.167C244.655 306.167 246.124 304.698 246.124 302.889C246.124 301.08 244.655 299.611 242.846 299.611Z" fill="#CFCFCF"/>
<path d="M260.365 299.611C258.556 299.611 257.087 301.08 257.087 302.889C257.087 304.698 258.556 306.167 260.365 306.167C262.174 306.167 263.643 304.698 263.643 302.889C263.648 301.08 262.179 299.611 260.365 299.611Z" fill="#CFCFCF"/>
<path d="M190.278 317.136C188.469 317.136 187 318.605 187 320.414C187 322.223 188.469 323.692 190.278 323.692C192.087 323.692 193.556 322.223 193.556 320.414C193.556 318.605 192.087 317.136 190.278 317.136Z" fill="#CFCFCF"/>
<path d="M207.802 317.136C205.994 317.136 204.524 318.605 204.524 320.414C204.524 322.223 205.994 323.692 207.802 323.692C209.611 323.692 211.08 322.223 211.08 320.414C211.08 318.605 209.611 317.136 207.802 317.136Z" fill="#CFCFCF"/>
<path d="M225.321 317.136C223.512 317.136 222.043 318.605 222.043 320.414C222.043 322.223 223.512 323.692 225.321 323.692C227.13 323.692 228.599 322.223 228.599 320.414C228.605 318.605 227.136 317.136 225.321 317.136Z" fill="#CFCFCF"/>
<path d="M242.846 317.136C241.037 317.136 239.568 318.605 239.568 320.414C239.568 322.223 241.037 323.692 242.846 323.692C244.655 323.692 246.124 322.223 246.124 320.414C246.124 318.605 244.655 317.136 242.846 317.136Z" fill="#CFCFCF"/>
<path d="M260.365 317.136C258.556 317.136 257.087 318.605 257.087 320.414C257.087 322.223 258.556 323.692 260.365 323.692C262.174 323.692 263.643 322.223 263.643 320.414C263.648 318.605 262.179 317.136 260.365 317.136Z" fill="#CFCFCF"/>
<path d="M190.278 334.655C188.469 334.655 187 336.124 187 337.933C187 339.742 188.469 341.211 190.278 341.211C192.087 341.211 193.556 339.742 193.556 337.933C193.556 336.124 192.087 334.655 190.278 334.655Z" fill="#CFCFCF"/>
<path d="M207.802 334.655C205.994 334.655 204.524 336.124 204.524 337.933C204.524 339.742 205.994 341.211 207.802 341.211C209.611 341.211 211.08 339.742 211.08 337.933C211.08 336.124 209.611 334.655 207.802 334.655Z" fill="#CFCFCF"/>
<path d="M225.321 334.655C223.512 334.655 222.043 336.124 222.043 337.933C222.043 339.742 223.512 341.211 225.321 341.211C227.13 341.211 228.599 339.742 228.599 337.933C228.605 336.124 227.136 334.655 225.321 334.655Z" fill="#CFCFCF"/>
<path d="M242.846 334.655C241.037 334.655 239.568 336.124 239.568 337.933C239.568 339.742 241.037 341.211 242.846 341.211C244.655 341.211 246.124 339.742 246.124 337.933C246.124 336.124 244.655 334.655 242.846 334.655Z" fill="#CFCFCF"/>
<path d="M260.365 334.655C258.556 334.655 257.087 336.124 257.087 337.933C257.087 339.742 258.556 341.211 260.365 341.211C262.174 341.211 263.643 339.742 263.643 337.933C263.648 336.124 262.179 334.655 260.365 334.655Z" fill="#CFCFCF"/>
<path d="M190.278 352.179C188.469 352.179 187 353.648 187 355.457C187 357.266 188.469 358.735 190.278 358.735C192.087 358.735 193.556 357.266 193.556 355.457C193.556 353.648 192.087 352.179 190.278 352.179Z" fill="#CFCFCF"/>
<path d="M207.802 352.179C205.994 352.179 204.524 353.648 204.524 355.457C204.524 357.266 205.994 358.735 207.802 358.735C209.611 358.735 211.08 357.266 211.08 355.457C211.08 353.648 209.611 352.179 207.802 352.179Z" fill="#CFCFCF"/>
<path d="M225.321 352.179C223.512 352.179 222.043 353.648 222.043 355.457C222.043 357.266 223.512 358.735 225.321 358.735C227.13 358.735 228.599 357.266 228.599 355.457C228.599 353.648 227.136 352.179 225.321 352.179Z" fill="#CFCFCF"/>
<path d="M242.846 352.179C241.037 352.179 239.568 353.648 239.568 355.457C239.568 357.266 241.037 358.735 242.846 358.735C244.655 358.735 246.124 357.266 246.124 355.457C246.124 353.648 244.655 352.179 242.846 352.179Z" fill="#CFCFCF"/>
<path d="M260.365 352.179C258.556 352.179 257.087 353.648 257.087 355.457C257.087 357.266 258.556 358.735 260.365 358.735C262.174 358.735 263.643 357.266 263.643 355.457C263.643 353.648 262.179 352.179 260.365 352.179Z" fill="#CFCFCF"/>
<g opacity="0.66" filter="url(#filter0_f_108_187)">
<rect x="50" y="98" width="349" height="227" rx="12" fill="url(#paint0_linear_108_187)"/>
</g>
<rect x="25" y="52" width="400" height="260" rx="12" fill="url(#paint1_linear_108_187)"/>
<rect x="25" y="117" width="400" height="60" fill="#CDCDCD" fill-opacity="0.3"/>
<path d="M57.526 88.818C58.3193 88.818 58.9587 89.0747 59.444 89.588C59.9293 90.1013 60.172 90.792 60.172 91.66V96H58.66V91.758C58.66 91.282 58.5387 90.9087 58.296 90.638C58.0533 90.3673 57.722 90.232 57.302 90.232C56.826 90.232 56.4527 90.3907 56.182 90.708C55.9113 91.016 55.776 91.4733 55.776 92.08V96H54.264V91.758C54.264 91.2727 54.1473 90.8993 53.914 90.638C53.69 90.3673 53.368 90.232 52.948 90.232C52.4813 90.232 52.1033 90.3907 51.814 90.708C51.534 91.0253 51.394 91.4827 51.394 92.08V96H49.882V89H51.394V89.84C51.842 89.1587 52.5093 88.818 53.396 88.818C54.292 88.818 54.9547 89.1867 55.384 89.924C55.8413 89.1867 56.5553 88.818 57.526 88.818ZM66.5082 92.752V89H68.0202V96H66.5082V95.104C66.0415 95.8227 65.3182 96.182 64.3382 96.182C63.5262 96.182 62.8729 95.9253 62.3782 95.412C61.8929 94.8893 61.6502 94.1847 61.6502 93.298V89H63.1622V93.144C63.1622 93.6667 63.3022 94.068 63.5822 94.348C63.8622 94.628 64.2449 94.768 64.7302 94.768C65.2809 94.768 65.7149 94.6 66.0322 94.264C66.3495 93.9187 66.5082 93.4147 66.5082 92.752ZM71.3003 96H69.7883V85.78H71.3003V96ZM76.9618 89V90.456H75.2258V93.816C75.2258 94.1053 75.2912 94.3153 75.4218 94.446C75.5525 94.5673 75.7438 94.6373 75.9958 94.656C76.2572 94.6653 76.5792 94.6607 76.9618 94.642V96C75.8045 96.14 74.9738 96.042 74.4698 95.706C73.9658 95.3607 73.7138 94.7307 73.7138 93.816V90.456H72.4258V89H73.7138V87.488L75.2258 87.04V89H76.9618ZM79.7612 87.67C79.5745 87.8567 79.3505 87.95 79.0892 87.95C78.8278 87.95 78.5992 87.8567 78.4032 87.67C78.2165 87.474 78.1232 87.2453 78.1232 86.984C78.1232 86.7227 78.2165 86.4987 78.4032 86.312C78.5898 86.116 78.8185 86.018 79.0892 86.018C79.3598 86.018 79.5885 86.116 79.7752 86.312C79.9618 86.4987 80.0552 86.7227 80.0552 86.984C80.0552 87.2453 79.9572 87.474 79.7612 87.67ZM79.8452 96H78.3332V89H79.8452V96ZM85.5628 88.818C86.5241 88.818 87.3454 89.1727 88.0268 89.882C88.7081 90.5913 89.0488 91.464 89.0488 92.5C89.0488 93.536 88.7081 94.4087 88.0268 95.118C87.3454 95.8273 86.5241 96.182 85.5628 96.182C84.4988 96.182 83.6821 95.7853 83.1128 94.992V96H81.6008V86.2H83.1128V89.994C83.6914 89.21 84.5081 88.818 85.5628 88.818ZM83.7428 94.11C84.1628 94.53 84.6901 94.74 85.3248 94.74C85.9594 94.74 86.4868 94.53 86.9068 94.11C87.3268 93.6807 87.5368 93.144 87.5368 92.5C87.5368 91.856 87.3268 91.324 86.9068 90.904C86.4868 90.4747 85.9594 90.26 85.3248 90.26C84.6901 90.26 84.1628 90.4747 83.7428 90.904C83.3228 91.324 83.1128 91.856 83.1128 92.5C83.1128 93.1347 83.3228 93.6713 83.7428 94.11ZM95.9631 89.994V89H97.4751V96H95.9631V94.992C95.3938 95.7853 94.5771 96.182 93.5131 96.182C92.5518 96.182 91.7304 95.8273 91.0491 95.118C90.3678 94.4087 90.0271 93.536 90.0271 92.5C90.0271 91.464 90.3678 90.5913 91.0491 89.882C91.7304 89.1727 92.5518 88.818 93.5131 88.818C94.5771 88.818 95.3938 89.21 95.9631 89.994ZM92.1691 94.11C92.5891 94.53 93.1164 94.74 93.7511 94.74C94.3858 94.74 94.9131 94.53 95.3331 94.11C95.7531 93.6807 95.9631 93.144 95.9631 92.5C95.9631 91.856 95.7531 91.324 95.3331 90.904C94.9131 90.4747 94.3858 90.26 93.7511 90.26C93.1164 90.26 92.5891 90.4747 92.1691 90.904C91.7491 91.324 91.5391 91.856 91.5391 92.5C91.5391 93.1347 91.7491 93.6713 92.1691 94.11ZM102.919 88.818C103.731 88.818 104.38 89.0793 104.865 89.602C105.36 90.1153 105.607 90.8153 105.607 91.702V96H104.095V91.856C104.095 91.3333 103.955 90.932 103.675 90.652C103.395 90.372 103.013 90.232 102.527 90.232C101.977 90.232 101.543 90.4047 101.225 90.75C100.908 91.086 100.749 91.5853 100.749 92.248V96H99.2375V89H100.749V89.896C101.216 89.1773 101.939 88.818 102.919 88.818ZM110.232 92.43L113.424 96H111.618L108.748 92.766V96H107.236V86.2H108.748V92.094L111.464 89H113.312L110.232 92.43Z" fill="white"/>
<path d="M58.1 272H56.364L55.678 270.026H51.506L50.82 272H49.07L52.626 262.2H54.558L58.1 272ZM53.592 264.09L52.038 268.514H55.146L53.592 264.09ZM60.5678 272H59.0558V261.78H60.5678V272ZM63.7514 263.67C63.5647 263.857 63.3407 263.95 63.0794 263.95C62.8181 263.95 62.5894 263.857 62.3934 263.67C62.2067 263.474 62.1134 263.245 62.1134 262.984C62.1134 262.723 62.2067 262.499 62.3934 262.312C62.5801 262.116 62.8087 262.018 63.0794 262.018C63.3501 262.018 63.5787 262.116 63.7654 262.312C63.9521 262.499 64.0454 262.723 64.0454 262.984C64.0454 263.245 63.9474 263.474 63.7514 263.67ZM63.8354 272H62.3234V265H63.8354V272ZM66.908 266.932C66.908 267.147 67.02 267.324 67.244 267.464C67.468 267.595 67.7946 267.721 68.224 267.842C68.5506 267.917 68.8353 267.996 69.078 268.08C69.3206 268.164 69.5773 268.29 69.848 268.458C70.1186 268.617 70.324 268.831 70.464 269.102C70.6133 269.363 70.6833 269.671 70.674 270.026C70.674 270.698 70.4126 271.225 69.89 271.608C69.3673 271.991 68.7186 272.182 67.944 272.182C67.2533 272.182 66.6606 272.037 66.166 271.748C65.6713 271.459 65.312 271.057 65.088 270.544L66.39 269.788C66.6233 270.46 67.1413 270.796 67.944 270.796C68.7373 270.796 69.134 270.535 69.134 270.012C69.134 269.629 68.6906 269.331 67.804 269.116C67.468 269.032 67.1833 268.948 66.95 268.864C66.726 268.78 66.474 268.659 66.194 268.5C65.9233 268.341 65.7133 268.131 65.564 267.87C65.424 267.609 65.3586 267.305 65.368 266.96C65.368 266.316 65.6106 265.798 66.096 265.406C66.5906 265.014 67.202 264.818 67.93 264.818C68.5086 264.818 69.022 264.949 69.47 265.21C69.9273 265.462 70.2773 265.817 70.52 266.274L69.246 266.988C69.0126 266.456 68.574 266.19 67.93 266.19C67.6313 266.19 67.384 266.255 67.188 266.386C67.0013 266.517 66.908 266.699 66.908 266.932ZM75.6031 264.818C76.4151 264.818 77.0637 265.079 77.5491 265.602C78.0437 266.115 78.2911 266.815 78.2911 267.702V272H76.7791V267.856C76.7791 267.333 76.6391 266.932 76.3591 266.652C76.0791 266.372 75.6964 266.232 75.2111 266.232C74.6604 266.232 74.2264 266.405 73.9091 266.75C73.5917 267.086 73.4331 267.585 73.4331 268.248V272H71.9211V262.2H73.4331V265.896C73.8997 265.177 74.6231 264.818 75.6031 264.818ZM86.6811 269.144H81.1091C81.2211 269.667 81.4731 270.073 81.8651 270.362C82.2664 270.651 82.7611 270.796 83.3491 270.796C84.1424 270.796 84.7444 270.507 85.1551 269.928L86.4011 270.656C85.7198 271.673 84.6978 272.182 83.3351 272.182C82.2058 272.182 81.2864 271.837 80.5771 271.146C79.8771 270.446 79.5271 269.564 79.5271 268.5C79.5271 267.464 79.8724 266.591 80.5631 265.882C81.2444 265.173 82.1311 264.818 83.2231 264.818C84.2404 264.818 85.0804 265.177 85.7431 265.896C86.4058 266.615 86.7371 267.487 86.7371 268.514C86.7371 268.701 86.7184 268.911 86.6811 269.144ZM81.0951 267.912H85.2111C85.1084 267.361 84.8751 266.937 84.5111 266.638C84.1564 266.339 83.7224 266.19 83.2091 266.19C82.6491 266.19 82.1824 266.344 81.8091 266.652C81.4358 266.96 81.1978 267.38 81.0951 267.912ZM89.5795 265V266.176C89.9622 265.308 90.6809 264.874 91.7355 264.874V266.512C91.1662 266.475 90.6622 266.615 90.2235 266.932C89.7942 267.24 89.5795 267.753 89.5795 268.472V272H88.0675V265H89.5795ZM102.331 268.85V262.2H103.941V272H102.681L98.0607 265.35V272H96.4507V262.2H97.7107L102.331 268.85ZM111.344 265.994V265H112.856V272H111.344V270.992C110.775 271.785 109.958 272.182 108.894 272.182C107.933 272.182 107.111 271.827 106.43 271.118C105.749 270.409 105.408 269.536 105.408 268.5C105.408 267.464 105.749 266.591 106.43 265.882C107.111 265.173 107.933 264.818 108.894 264.818C109.958 264.818 110.775 265.21 111.344 265.994ZM107.55 270.11C107.97 270.53 108.497 270.74 109.132 270.74C109.767 270.74 110.294 270.53 110.714 270.11C111.134 269.681 111.344 269.144 111.344 268.5C111.344 267.856 111.134 267.324 110.714 266.904C110.294 266.475 109.767 266.26 109.132 266.26C108.497 266.26 107.97 266.475 107.55 266.904C107.13 267.324 106.92 267.856 106.92 268.5C106.92 269.135 107.13 269.671 107.55 270.11ZM117.418 270.32L119.364 265H121.016L118.286 272H116.536L113.806 265H115.458L117.418 270.32ZM127.622 271.118C126.913 271.827 126.04 272.182 125.004 272.182C123.968 272.182 123.096 271.827 122.386 271.118C121.668 270.399 121.308 269.527 121.308 268.5C121.308 267.473 121.668 266.601 122.386 265.882C123.096 265.173 123.968 264.818 125.004 264.818C126.04 264.818 126.913 265.173 127.622 265.882C128.341 266.601 128.7 267.473 128.7 268.5C128.7 269.527 128.341 270.399 127.622 271.118ZM122.82 268.5C122.82 269.135 123.03 269.662 123.45 270.082C123.87 270.502 124.388 270.712 125.004 270.712C125.62 270.712 126.138 270.502 126.558 270.082C126.978 269.662 127.188 269.135 127.188 268.5C127.188 267.865 126.978 267.338 126.558 266.918C126.138 266.498 125.62 266.288 125.004 266.288C124.388 266.288 123.87 266.498 123.45 266.918C123.03 267.338 122.82 267.865 122.82 268.5ZM131.496 263.67C131.309 263.857 131.085 263.95 130.824 263.95C130.562 263.95 130.334 263.857 130.138 263.67C129.951 263.474 129.858 263.245 129.858 262.984C129.858 262.723 129.951 262.499 130.138 262.312C130.324 262.116 130.553 262.018 130.824 262.018C131.094 262.018 131.323 262.116 131.51 262.312C131.696 262.499 131.79 262.723 131.79 262.984C131.79 263.245 131.692 263.474 131.496 263.67ZM131.58 272H130.068V265H131.58V272Z" fill="white"/>
<path d="M102.856 246H94.558V244.38L98.95 239.898C100.018 238.83 100.552 237.906 100.552 237.126C100.552 236.526 100.372 236.052 100.012 235.704C99.652 235.356 99.184 235.182 98.608 235.182C97.552 235.182 96.772 235.704 96.268 236.748L94.522 235.722C94.906 234.894 95.458 234.264 96.178 233.832C96.898 233.388 97.702 233.166 98.59 233.166C99.706 233.166 100.654 233.514 101.434 234.21C102.226 234.918 102.622 235.866 102.622 237.054C102.622 238.326 101.908 239.694 100.48 241.158L97.636 244.002H102.856V246ZM116.595 235.164L114.039 238.548C114.975 238.764 115.719 239.196 116.271 239.844C116.835 240.48 117.117 241.26 117.117 242.184C117.117 243.444 116.691 244.434 115.839 245.154C114.999 245.874 113.955 246.234 112.707 246.234C111.723 246.234 110.853 246.012 110.097 245.568C109.341 245.112 108.801 244.464 108.477 243.624L110.241 242.598C110.613 243.678 111.435 244.218 112.707 244.218C113.427 244.218 113.997 244.038 114.417 243.678C114.837 243.306 115.047 242.808 115.047 242.184C115.047 241.56 114.837 241.068 114.417 240.708C113.997 240.348 113.427 240.168 112.707 240.168H112.239L111.411 238.926L114.129 235.344H108.855V233.4H116.595V235.164ZM126.794 241.806H128.234V243.732H126.794V246H124.706V243.732H118.514V241.806L122.852 233.4H125.102L120.764 241.806H124.706V238.53H126.794V241.806ZM131.907 238.152H133.491C134.691 238.152 135.705 238.512 136.533 239.232C137.361 239.94 137.775 240.924 137.775 242.184C137.775 243.444 137.349 244.434 136.497 245.154C135.657 245.874 134.613 246.234 133.365 246.234C132.345 246.234 131.457 246 130.701 245.532C129.945 245.064 129.405 244.398 129.081 243.534L130.863 242.508C131.211 243.648 132.045 244.218 133.365 244.218C134.073 244.218 134.637 244.038 135.057 243.678C135.489 243.306 135.705 242.808 135.705 242.184C135.705 241.572 135.495 241.086 135.075 240.726C134.655 240.354 134.097 240.168 133.401 240.168H129.729L130.215 233.4H137.235V235.344H132.123L131.907 238.152ZM146.216 238.152H147.8C149 238.152 150.014 238.512 150.842 239.232C151.67 239.94 152.084 240.924 152.084 242.184C152.084 243.444 151.658 244.434 150.806 245.154C149.966 245.874 148.922 246.234 147.674 246.234C146.654 246.234 145.766 246 145.01 245.532C144.254 245.064 143.714 244.398 143.39 243.534L145.172 242.508C145.52 243.648 146.354 244.218 147.674 244.218C148.382 244.218 148.946 244.038 149.366 243.678C149.798 243.306 150.014 242.808 150.014 242.184C150.014 241.572 149.804 241.086 149.384 240.726C148.964 240.354 148.406 240.168 147.71 240.168H144.038L144.524 233.4H151.544V235.344H146.432L146.216 238.152ZM161.683 244.452C160.819 245.64 159.607 246.234 158.047 246.234C156.499 246.234 155.281 245.64 154.393 244.452C153.529 243.264 153.097 241.68 153.097 239.7C153.097 237.72 153.529 236.136 154.393 234.948C155.281 233.76 156.499 233.166 158.047 233.166C159.607 233.166 160.819 233.76 161.683 234.948C162.559 236.124 162.997 237.708 162.997 239.7C162.997 241.692 162.559 243.276 161.683 244.452ZM158.047 244.218C158.983 244.218 159.697 243.828 160.189 243.048C160.681 242.268 160.927 241.152 160.927 239.7C160.927 238.248 160.681 237.132 160.189 236.352C159.697 235.572 158.983 235.182 158.047 235.182C157.123 235.182 156.409 235.572 155.905 236.352C155.413 237.132 155.167 238.248 155.167 239.7C155.167 241.152 155.413 242.268 155.905 243.048C156.409 243.828 157.123 244.218 158.047 244.218ZM173.021 244.452C172.157 245.64 170.945 246.234 169.385 246.234C167.837 246.234 166.619 245.64 165.731 244.452C164.867 243.264 164.435 241.68 164.435 239.7C164.435 237.72 164.867 236.136 165.731 234.948C166.619 233.76 167.837 233.166 169.385 233.166C170.945 233.166 172.157 233.76 173.021 234.948C173.897 236.124 174.335 237.708 174.335 239.7C174.335 241.692 173.897 243.276 173.021 244.452ZM169.385 244.218C170.321 244.218 171.035 243.828 171.527 243.048C172.019 242.268 172.265 241.152 172.265 239.7C172.265 238.248 172.019 237.132 171.527 236.352C171.035 235.572 170.321 235.182 169.385 235.182C168.461 235.182 167.747 235.572 167.243 236.352C166.751 237.132 166.505 238.248 166.505 239.7C166.505 241.152 166.751 242.268 167.243 243.048C167.747 243.828 168.461 244.218 169.385 244.218ZM180.687 241.824V233.4H182.757V241.698C182.757 242.478 182.985 243.096 183.441 243.552C183.909 243.996 184.581 244.218 185.457 244.218C186.333 244.218 186.999 243.996 187.455 243.552C187.923 243.096 188.157 242.478 188.157 241.698V233.4H190.227V241.824C190.227 243.156 189.783 244.23 188.895 245.046C188.019 245.838 186.873 246.234 185.457 246.234C184.041 246.234 182.895 245.838 182.019 245.046C181.131 244.23 180.687 243.156 180.687 241.824ZM200.258 235.11L194.606 244.02H200.402V246H192.032V244.29L197.684 235.38H192.158V233.4H200.258V235.11ZM205.995 246.234C204.783 246.234 203.751 245.964 202.899 245.424C202.059 244.872 201.471 244.11 201.135 243.138L202.917 242.094C203.421 243.51 204.465 244.218 206.049 244.218C206.817 244.218 207.399 244.068 207.795 243.768C208.191 243.468 208.389 243.066 208.389 242.562C208.389 242.058 208.179 241.668 207.759 241.392C207.339 241.116 206.595 240.816 205.527 240.492C204.435 240.168 203.553 239.784 202.881 239.34C202.065 238.764 201.657 237.918 201.657 236.802C201.657 235.686 202.053 234.804 202.845 234.156C203.625 233.496 204.579 233.166 205.707 233.166C206.703 233.166 207.579 233.412 208.335 233.904C209.103 234.384 209.691 235.062 210.099 235.938L208.353 236.946C207.825 235.77 206.943 235.182 205.707 235.182C205.107 235.182 204.627 235.326 204.267 235.614C203.907 235.89 203.727 236.268 203.727 236.748C203.727 237.216 203.907 237.588 204.267 237.864C204.627 238.128 205.293 238.41 206.265 238.71C206.865 238.914 207.213 239.034 207.309 239.07C207.465 239.118 207.777 239.238 208.245 239.43C208.629 239.586 208.935 239.754 209.163 239.934C210.099 240.666 210.531 241.53 210.459 242.526C210.459 243.666 210.045 244.572 209.217 245.244C208.413 245.904 207.339 246.234 205.995 246.234Z" fill="white"/>
<path opacity="0.6" d="M51.85 235.7H53.35C53.9967 235.7 54.5333 235.903 54.96 236.31C55.3867 236.717 55.6 237.23 55.6 237.85C55.6 238.47 55.3867 238.983 54.96 239.39C54.5333 239.797 53.9967 240 53.35 240H50.7V233H55V234.1H51.85V235.7ZM51.85 238.92H53.35C53.67 238.92 53.9333 238.823 54.14 238.63C54.3467 238.43 54.45 238.17 54.45 237.85C54.45 237.53 54.3467 237.273 54.14 237.08C53.9333 236.88 53.67 236.78 53.35 236.78H51.85V238.92ZM60.4396 235.71V235H61.5196V240H60.4396V239.28C60.0329 239.847 59.4496 240.13 58.6896 240.13C58.0029 240.13 57.4163 239.877 56.9296 239.37C56.4429 238.863 56.1996 238.24 56.1996 237.5C56.1996 236.76 56.4429 236.137 56.9296 235.63C57.4163 235.123 58.0029 234.87 58.6896 234.87C59.4496 234.87 60.0329 235.15 60.4396 235.71ZM57.7296 238.65C58.0296 238.95 58.4063 239.1 58.8596 239.1C59.3129 239.1 59.6896 238.95 59.9896 238.65C60.2896 238.343 60.4396 237.96 60.4396 237.5C60.4396 237.04 60.2896 236.66 59.9896 236.36C59.6896 236.053 59.3129 235.9 58.8596 235.9C58.4063 235.9 58.0296 236.053 57.7296 236.36C57.4296 236.66 57.2796 237.04 57.2796 237.5C57.2796 237.953 57.4296 238.337 57.7296 238.65ZM63.1684 235H66.9984V240H65.9184V236.04H64.2484V237.9C64.2484 238.68 64.0784 239.24 63.7384 239.58C63.3984 239.92 62.9018 240.06 62.2484 240V238.99C62.5551 239.043 62.7851 238.98 62.9384 238.8C63.0918 238.613 63.1684 238.297 63.1684 237.85V235ZM72.217 235.71V235H73.297V240H72.217V239.28C71.8103 239.847 71.227 240.13 70.467 240.13C69.7803 240.13 69.1936 239.877 68.707 239.37C68.2203 238.863 67.977 238.24 67.977 237.5C67.977 236.76 68.2203 236.137 68.707 235.63C69.1936 235.123 69.7803 234.87 70.467 234.87C71.227 234.87 71.8103 235.15 72.217 235.71ZM69.507 238.65C69.807 238.95 70.1836 239.1 70.637 239.1C71.0903 239.1 71.467 238.95 71.767 238.65C72.067 238.343 72.217 237.96 72.217 237.5C72.217 237.04 72.067 236.66 71.767 236.36C71.467 236.053 71.0903 235.9 70.637 235.9C70.1836 235.9 69.807 236.053 69.507 236.36C69.207 236.66 69.057 237.04 69.057 237.5C69.057 237.953 69.207 238.337 69.507 238.65ZM77.9258 236.99V235H79.0058V240H77.9258V238.01H75.6358V240H74.5558V235H75.6358V236.99H77.9258ZM82.6189 240.13C81.8656 240.13 81.2356 239.877 80.7289 239.37C80.2289 238.857 79.9789 238.233 79.9789 237.5C79.9789 236.753 80.2289 236.13 80.7289 235.63C81.2356 235.123 81.8656 234.87 82.6189 234.87C83.1056 234.87 83.5489 234.987 83.9489 235.22C84.3489 235.453 84.6489 235.767 84.8489 236.16L83.9189 236.7C83.8056 236.46 83.6322 236.273 83.3989 236.14C83.1722 236 82.9089 235.93 82.6089 235.93C82.1689 235.93 81.7989 236.08 81.4989 236.38C81.2056 236.687 81.0589 237.06 81.0589 237.5C81.0589 237.94 81.2056 238.313 81.4989 238.62C81.7989 238.92 82.1689 239.07 82.6089 239.07C82.9022 239.07 83.1656 239.003 83.3989 238.87C83.6389 238.73 83.8189 238.54 83.9389 238.3L84.8689 238.83C84.6556 239.23 84.3456 239.547 83.9389 239.78C83.5389 240.013 83.0989 240.13 82.6189 240.13ZM85.5788 235.62C85.5788 235.407 85.6488 235.23 85.7888 235.09C85.9355 234.943 86.1155 234.87 86.3288 234.87C86.5355 234.857 86.7122 234.93 86.8588 235.09C87.0055 235.25 87.0788 235.427 87.0788 235.62C87.0788 235.813 87.0055 235.99 86.8588 236.15C86.6988 236.297 86.5222 236.37 86.3288 236.37C86.1355 236.37 85.9588 236.297 85.7988 236.15C85.6388 236.003 85.5655 235.827 85.5788 235.62ZM86.3288 238.62C86.5355 238.62 86.7122 238.693 86.8588 238.84C87.0055 238.987 87.0788 239.163 87.0788 239.37C87.0788 239.577 87.0055 239.753 86.8588 239.9C86.7122 240.047 86.5355 240.12 86.3288 240.12C86.1222 240.12 85.9455 240.047 85.7988 239.9C85.6522 239.753 85.5788 239.577 85.5788 239.37C85.5788 239.163 85.6488 238.987 85.7888 238.84C85.9355 238.693 86.1155 238.62 86.3288 238.62Z" fill="white"/>
<path d="M59.36 146.64C60.4 146 61 145.02 61 143.76C61 141.3 58.8 139.76 55.58 139.76C52.4 139.76 50.2 141.3 50.2 143.76C50.2 145.02 50.78 146 51.82 146.64C50.48 147.32 49.7 148.44 49.7 149.94C49.7 152.58 52.04 154.24 55.58 154.24C59.14 154.24 61.5 152.58 61.5 149.94C61.5 148.44 60.72 147.32 59.36 146.64ZM55.58 142.14C56.9 142.14 57.78 142.8 57.78 143.9C57.78 144.96 56.92 145.62 55.58 145.62C54.26 145.62 53.42 144.96 53.42 143.9C53.42 142.8 54.28 142.14 55.58 142.14ZM55.58 151.86C53.98 151.86 52.98 151.08 52.98 149.84C52.98 148.6 53.98 147.84 55.58 147.84C57.2 147.84 58.22 148.6 58.22 149.84C58.22 151.08 57.2 151.86 55.58 151.86ZM69.7231 145.22C68.2631 145.22 67.0831 145.64 66.2631 146.46C66.3631 143.78 67.8631 142.4 70.2031 142.4C71.1431 142.4 72.0431 142.58 72.8231 143.1L74.0231 140.72C73.0431 140.1 71.6031 139.76 70.1231 139.76C65.9031 139.76 62.9831 142.46 62.9831 147.3C62.9831 151.82 65.3831 154.24 69.2431 154.24C72.2031 154.24 74.5431 152.44 74.5431 149.58C74.5431 146.94 72.4231 145.22 69.7231 145.22ZM69.0631 151.82C67.5031 151.82 66.6031 150.94 66.6031 149.74C66.6031 148.52 67.6031 147.64 69.0231 147.64C70.4631 147.64 71.4031 148.46 71.4031 149.74C71.4031 151.02 70.4431 151.82 69.0631 151.82ZM81.7175 154.24C85.1775 154.24 87.7175 151.62 87.7175 147C87.7175 142.38 85.1775 139.76 81.7175 139.76C78.2775 139.76 75.7175 142.38 75.7175 147C75.7175 151.62 78.2775 154.24 81.7175 154.24ZM81.7175 151.5C80.1175 151.5 78.9975 150.18 78.9975 147C78.9975 143.82 80.1175 142.5 81.7175 142.5C83.3375 142.5 84.4575 143.82 84.4575 147C84.4575 150.18 83.3375 151.5 81.7175 151.5ZM93.6145 151.36L96.8345 148.32C98.7945 146.5 99.1745 145.26 99.1745 143.9C99.1745 141.36 97.0945 139.76 93.9745 139.76C91.4545 139.76 89.4945 140.78 88.4145 142.36L90.7745 143.88C91.4545 142.94 92.4745 142.48 93.6745 142.48C95.1545 142.48 95.9145 143.12 95.9145 144.22C95.9145 144.9 95.6945 145.62 94.4545 146.8L89.0545 151.9V154H99.6345V151.36H93.6145ZM105.995 140V142.6H108.795V154H112.035V140H105.995ZM118.908 151.36L122.128 148.32C124.088 146.5 124.468 145.26 124.468 143.9C124.468 141.36 122.388 139.76 119.268 139.76C116.748 139.76 114.788 140.78 113.708 142.36L116.068 143.88C116.748 142.94 117.768 142.48 118.967 142.48C120.448 142.48 121.208 143.12 121.208 144.22C121.208 144.9 120.988 145.62 119.748 146.8L114.347 151.9V154H124.928V151.36H118.908ZM132.804 145.7L135.964 142.1V140H126.164V142.6H132.124L129.244 145.86V148H130.724C132.564 148 133.344 148.66 133.344 149.72C133.344 150.86 132.344 151.52 130.724 151.52C129.264 151.52 127.784 151.06 126.724 150.26L125.464 152.74C126.824 153.7 128.844 154.24 130.804 154.24C134.784 154.24 136.604 152.08 136.604 149.72C136.604 147.66 135.324 146.1 132.804 145.7ZM150.92 148.42H148.64V145.8H145.58V148.42H141.82L147.94 140H144.54L137.94 148.88V151.06H145.48V154H148.64V151.06H150.92V148.42ZM165.193 141.92L164.213 140.28L162.013 141.6L162.053 139.16H160.173L160.193 141.6L157.993 140.28L157.033 141.92L159.213 143.12L157.033 144.3L157.993 145.94L160.193 144.62L160.173 147.06H162.053L162.013 144.64L164.213 145.94L165.193 144.3L163.013 143.12L165.193 141.92ZM174.256 141.92L173.276 140.28L171.076 141.6L171.116 139.16H169.236L169.256 141.6L167.056 140.28L166.096 141.92L168.276 143.12L166.096 144.3L167.056 145.94L169.256 144.62L169.236 147.06H171.116L171.076 144.64L173.276 145.94L174.256 144.3L172.076 143.12L174.256 141.92ZM183.318 141.92L182.338 140.28L180.138 141.6L180.178 139.16H178.298L178.318 141.6L176.118 140.28L175.158 141.92L177.338 143.12L175.158 144.3L176.118 145.94L178.318 144.62L178.298 147.06H180.178L180.138 144.64L182.338 145.94L183.318 144.3L181.138 143.12L183.318 141.92ZM192.381 141.92L191.401 140.28L189.201 141.6L189.241 139.16H187.361L187.381 141.6L185.181 140.28L184.221 141.92L186.401 143.12L184.221 144.3L185.181 145.94L187.381 144.62L187.361 147.06H189.241L189.201 144.64L191.401 145.94L192.381 144.3L190.201 143.12L192.381 141.92ZM203.997 139.76C201.037 139.76 198.697 141.56 198.697 144.42C198.697 147.06 200.817 148.78 203.517 148.78C204.977 148.78 206.177 148.34 206.997 147.52C206.897 150.22 205.377 151.6 203.057 151.6C202.097 151.6 201.197 151.42 200.437 150.9L199.237 153.28C200.217 153.9 201.637 154.24 203.117 154.24C207.357 154.24 210.257 151.54 210.257 146.7C210.257 142.18 207.877 139.76 203.997 139.76ZM204.237 146.36C202.797 146.36 201.857 145.54 201.857 144.26C201.857 142.98 202.817 142.18 204.197 142.18C205.737 142.18 206.637 143.06 206.637 144.26C206.637 145.48 205.657 146.36 204.237 146.36ZM221.391 146.64C222.431 146 223.031 145.02 223.031 143.76C223.031 141.3 220.831 139.76 217.611 139.76C214.431 139.76 212.231 141.3 212.231 143.76C212.231 145.02 212.811 146 213.851 146.64C212.511 147.32 211.731 148.44 211.731 149.94C211.731 152.58 214.071 154.24 217.611 154.24C221.171 154.24 223.531 152.58 223.531 149.94C223.531 148.44 222.751 147.32 221.391 146.64ZM217.611 142.14C218.931 142.14 219.811 142.8 219.811 143.9C219.811 144.96 218.951 145.62 217.611 145.62C216.291 145.62 215.451 144.96 215.451 143.9C215.451 142.8 216.311 142.14 217.611 142.14ZM217.611 151.86C216.011 151.86 215.011 151.08 215.011 149.84C215.011 148.6 216.011 147.84 217.611 147.84C219.231 147.84 220.251 148.6 220.251 149.84C220.251 151.08 219.231 151.86 217.611 151.86ZM224.754 140V144.92H227.634V142.64H232.274L227.254 154H230.774L235.974 142.1V140H224.754ZM248.928 148.42H246.648V145.8H243.588V148.42H239.828L245.948 140H242.548L235.948 148.88V151.06H243.488V154H246.648V151.06H248.928V148.42Z" fill="white"/>
<path d="M346.78 154.24C350.24 154.24 352.78 151.62 352.78 147C352.78 142.38 350.24 139.76 346.78 139.76C343.34 139.76 340.78 142.38 340.78 147C340.78 151.62 343.34 154.24 346.78 154.24ZM346.78 151.5C345.18 151.5 344.06 150.18 344.06 147C344.06 143.82 345.18 142.5 346.78 142.5C348.4 142.5 349.52 143.82 349.52 147C349.52 150.18 348.4 151.5 346.78 151.5ZM359.154 145.26H358.014L358.234 142.6H364.074V140H355.534L354.814 147.88H358.394C360.934 147.88 361.654 148.6 361.654 149.7C361.654 150.84 360.654 151.52 359.034 151.52C357.574 151.52 356.114 151.06 355.054 150.26L353.774 152.74C355.134 153.7 357.174 154.24 359.114 154.24C363.114 154.24 364.934 152.08 364.934 149.6C364.934 147.12 363.294 145.26 359.154 145.26ZM364.809 156H367.589L374.189 137.16H371.409L364.809 156ZM378.521 151.36L381.741 148.32C383.701 146.5 384.081 145.26 384.081 143.9C384.081 141.36 382.001 139.76 378.881 139.76C376.361 139.76 374.401 140.78 373.321 142.36L375.681 143.88C376.361 142.94 377.381 142.48 378.581 142.48C380.061 142.48 380.821 143.12 380.821 144.22C380.821 144.9 380.601 145.62 379.361 146.8L373.961 151.9V154H384.541V151.36H378.521ZM385.238 140V142.6H388.038V154H391.278V140H385.238Z" fill="white"/>
<g clip-path="url(#clip0_108_187)">
<path d="M373.766 262.48L370.328 258.502C370.244 258.406 370.193 258.286 370.182 258.159C370.17 258.032 370.199 257.905 370.265 257.796L376.563 247.296C376.646 247.158 376.781 247.058 376.938 247.019C377.095 246.98 377.261 247.004 377.4 247.086L381.698 249.635C381.837 249.717 381.937 249.851 381.977 250.007C382.016 250.163 381.992 250.328 381.909 250.466L374.752 262.397C374.702 262.479 374.633 262.548 374.552 262.599C374.47 262.65 374.377 262.68 374.281 262.689C374.184 262.697 374.088 262.682 373.998 262.646C373.909 262.61 373.829 262.553 373.766 262.48Z" fill="white"/>
<path opacity="0.2" d="M391.681 249.3C391.788 249.363 391.882 249.445 391.958 249.544C392.033 249.643 392.087 249.755 392.118 249.875C392.149 249.995 392.155 250.119 392.137 250.242C392.119 250.364 392.077 250.481 392.012 250.587L378.911 272.119L377.138 275.033L377.092 275.116L376.227 276.542C376.148 276.671 376.039 276.78 375.91 276.859C375.78 276.938 375.634 276.986 375.482 276.998C375.33 277.01 375.178 276.987 375.037 276.929C374.896 276.871 374.771 276.782 374.672 276.667L373.753 275.592L359.726 259.355C359.645 259.262 359.584 259.153 359.545 259.036C359.507 258.918 359.492 258.794 359.503 258.671C359.513 258.548 359.548 258.428 359.606 258.319C359.663 258.209 359.742 258.112 359.838 258.033L363.127 255.297C363.321 255.136 363.571 255.057 363.823 255.077C364.076 255.098 364.31 255.216 364.475 255.406L373.799 266.194C373.898 266.308 374.023 266.397 374.164 266.454C374.304 266.511 374.456 266.535 374.607 266.522C374.758 266.51 374.904 266.463 375.034 266.384C375.163 266.305 375.272 266.197 375.351 266.069L386.668 247.461C386.8 247.247 387.012 247.093 387.258 247.032C387.503 246.971 387.763 247.008 387.98 247.136L391.681 249.3Z" fill="white"/>
<path d="M366.96 271.521C367.07 271.65 367.137 271.811 367.151 271.979C367.165 272.148 367.126 272.317 367.038 272.463L365.775 274.569L364.555 276.604C364.488 276.715 364.395 276.809 364.285 276.877C364.174 276.946 364.049 276.987 363.919 276.998C363.789 277.009 363.658 276.988 363.538 276.939C363.418 276.889 363.311 276.811 363.227 276.712L348.194 259.075C348.124 258.994 348.072 258.9 348.039 258.798C348.006 258.696 347.994 258.589 348.003 258.483C348.012 258.376 348.042 258.272 348.091 258.177C348.14 258.082 348.208 257.998 348.29 257.929L351.792 254.983C351.874 254.914 351.969 254.862 352.072 254.829C352.174 254.796 352.282 254.784 352.389 254.793C352.496 254.802 352.601 254.832 352.696 254.881C352.792 254.93 352.877 254.997 352.946 255.079L366.96 271.521Z" fill="white"/>
</g>
<defs>
<filter id="filter0_f_108_187" x="0" y="48" width="449" height="327" filterUnits="userSpaceOnUse" color-interpolation-filters="sRGB">
<feFlood flood-opacity="0" result="BackgroundImageFix"/>
<feBlend mode="normal" in="SourceGraphic" in2="BackgroundImageFix" result="shape"/>
<feGaussianBlur stdDeviation="25" result="effect1_foregroundBlur_108_187"/>
</filter>
<linearGradient id="paint0_linear_108_187" x1="50" y1="336.924" x2="382.998" y2="137.354" gradientUnits="userSpaceOnUse">
<stop stop-color="#383838"/>
<stop offset="1" stop-color="#B6B6B6"/>
</linearGradient>
<linearGradient id="paint1_linear_108_187" x1="25" y1="325.658" x2="406.527" y2="96.8524" gradientUnits="userSpaceOnUse">
<stop/>
<stop offset="1" stop-color="#C2C2C2"/>
</linearGradient>
<clipPath id="clip0_108_187">
<rect width="89" height="30" fill="white" transform="translate(303 247)"/>
</clipPath>
</defs>
</svg>
