<svg width="449" height="375" viewBox="0 0 449 375" fill="none" xmlns="http://www.w3.org/2000/svg">
<path d="M190.278 0C188.469 0 187 1.46904 187 3.27795C187 5.08686 188.469 6.55592 190.278 6.55592C192.087 6.55592 193.556 5.08686 193.556 3.27795C193.556 1.46904 192.087 0 190.278 0Z" fill="#CFCFCF"/>
<path d="M207.802 0C205.994 0 204.524 1.46904 204.524 3.27795C204.524 5.08686 205.994 6.55592 207.802 6.55592C209.611 6.55592 211.08 5.08686 211.08 3.27795C211.08 1.46904 209.611 0 207.802 0Z" fill="#CFCFCF"/>
<path d="M225.321 0C223.512 0 222.043 1.46904 222.043 3.27795C222.043 5.08686 223.512 6.55592 225.321 6.55592C227.13 6.55592 228.599 5.08686 228.599 3.27795C228.605 1.46904 227.136 0 225.321 0Z" fill="#CFCFCF"/>
<path d="M242.846 0C241.037 0 239.568 1.46904 239.568 3.27795C239.568 5.08686 241.037 6.55592 242.846 6.55592C244.655 6.55592 246.124 5.08686 246.124 3.27795C246.124 1.46904 244.655 0 242.846 0Z" fill="#CFCFCF"/>
<path d="M260.365 6.5613C262.174 6.5613 263.643 5.09225 263.643 3.28334C263.643 1.47443 262.174 0.00537109 260.365 0.00537109C258.556 0.00537109 257.087 1.47443 257.087 3.28334C257.087 5.09225 258.556 6.5613 260.365 6.5613Z" fill="#CFCFCF"/>
<path d="M190.278 17.5244C188.469 17.5244 187 18.9935 187 20.8024C187 22.6113 188.469 24.0803 190.278 24.0803C192.087 24.0803 193.556 22.6113 193.556 20.8024C193.556 18.9935 192.087 17.5244 190.278 17.5244Z" fill="#CFCFCF"/>
<path d="M207.802 17.5244C205.994 17.5244 204.524 18.9935 204.524 20.8024C204.524 22.6113 205.994 24.0803 207.802 24.0803C209.611 24.0803 211.08 22.6113 211.08 20.8024C211.08 18.9935 209.611 17.5244 207.802 17.5244Z" fill="#CFCFCF"/>
<path d="M225.321 17.5244C223.512 17.5244 222.043 18.9935 222.043 20.8024C222.043 22.6113 223.512 24.0803 225.321 24.0803C227.13 24.0803 228.599 22.6113 228.599 20.8024C228.605 18.9935 227.136 17.5244 225.321 17.5244Z" fill="#CFCFCF"/>
<path d="M242.846 17.5244C241.037 17.5244 239.568 18.9935 239.568 20.8024C239.568 22.6113 241.037 24.0803 242.846 24.0803C244.655 24.0803 246.124 22.6113 246.124 20.8024C246.124 18.9935 244.655 17.5244 242.846 17.5244Z" fill="#CFCFCF"/>
<path d="M260.365 17.5244C258.556 17.5244 257.087 18.9935 257.087 20.8024C257.087 22.6113 258.556 24.0803 260.365 24.0803C262.174 24.0803 263.643 22.6113 263.643 20.8024C263.648 18.9935 262.179 17.5244 260.365 17.5244Z" fill="#CFCFCF"/>
<path d="M190.278 35.0435C188.469 35.0435 187 36.5125 187 38.3214C187 40.1303 188.469 41.5994 190.278 41.5994C192.087 41.5994 193.556 40.1303 193.556 38.3214C193.556 36.5125 192.087 35.0435 190.278 35.0435Z" fill="#CFCFCF"/>
<path d="M207.802 35.0435C205.994 35.0435 204.524 36.5125 204.524 38.3214C204.524 40.1303 205.994 41.5994 207.802 41.5994C209.611 41.5994 211.08 40.1303 211.08 38.3214C211.08 36.5125 209.611 35.0435 207.802 35.0435Z" fill="#CFCFCF"/>
<path d="M225.321 35.0435C223.512 35.0435 222.043 36.5125 222.043 38.3214C222.043 40.1303 223.512 41.5994 225.321 41.5994C227.13 41.5994 228.599 40.1303 228.599 38.3214C228.605 36.5125 227.136 35.0435 225.321 35.0435Z" fill="#CFCFCF"/>
<path d="M242.846 35.0435C241.037 35.0435 239.568 36.5125 239.568 38.3214C239.568 40.1303 241.037 41.5994 242.846 41.5994C244.655 41.5994 246.124 40.1303 246.124 38.3214C246.124 36.5125 244.655 35.0435 242.846 35.0435Z" fill="#CFCFCF"/>
<path d="M260.365 35.0435C258.556 35.0435 257.087 36.5125 257.087 38.3214C257.087 40.1303 258.556 41.5994 260.365 41.5994C262.174 41.5994 263.643 40.1303 263.643 38.3214C263.648 36.5125 262.179 35.0435 260.365 35.0435Z" fill="#CFCFCF"/>
<path d="M190.278 52.5679C188.469 52.5679 187 54.0369 187 55.8458C187 57.6547 188.469 59.1238 190.278 59.1238C192.087 59.1238 193.556 57.6547 193.556 55.8458C193.556 54.0369 192.087 52.5679 190.278 52.5679Z" fill="#CFCFCF"/>
<path d="M207.802 52.5679C205.994 52.5679 204.524 54.0369 204.524 55.8458C204.524 57.6547 205.994 59.1238 207.802 59.1238C209.611 59.1238 211.08 57.6547 211.08 55.8458C211.08 54.0369 209.611 52.5679 207.802 52.5679Z" fill="#CFCFCF"/>
<path d="M225.321 52.5679C223.512 52.5679 222.043 54.0369 222.043 55.8458C222.043 57.6547 223.512 59.1238 225.321 59.1238C227.13 59.1238 228.599 57.6547 228.599 55.8458C228.605 54.0369 227.136 52.5679 225.321 52.5679Z" fill="#CFCFCF"/>
<path d="M242.846 52.5679C241.037 52.5679 239.568 54.0369 239.568 55.8458C239.568 57.6547 241.037 59.1238 242.846 59.1238C244.655 59.1238 246.124 57.6547 246.124 55.8458C246.124 54.0369 244.655 52.5679 242.846 52.5679Z" fill="#CFCFCF"/>
<path d="M260.365 52.5679C258.556 52.5679 257.087 54.0369 257.087 55.8458C257.087 57.6547 258.556 59.1238 260.365 59.1238C262.174 59.1238 263.643 57.6547 263.643 55.8458C263.648 54.0369 262.179 52.5679 260.365 52.5679Z" fill="#CFCFCF"/>
<path d="M190.278 70.0925C188.469 70.0925 187 71.5616 187 73.3705C187 75.1794 188.469 76.6484 190.278 76.6484C192.087 76.6484 193.556 75.1794 193.556 73.3705C193.556 71.5561 192.087 70.0925 190.278 70.0925Z" fill="#CFCFCF"/>
<path d="M207.802 70.0925C205.994 70.0925 204.524 71.5616 204.524 73.3705C204.524 75.1794 205.994 76.6484 207.802 76.6484C209.611 76.6484 211.08 75.1794 211.08 73.3705C211.08 71.5561 209.611 70.0925 207.802 70.0925Z" fill="#CFCFCF"/>
<path d="M225.321 70.0925C223.512 70.0925 222.043 71.5616 222.043 73.3705C222.043 75.1794 223.512 76.6484 225.321 76.6484C227.13 76.6484 228.599 75.1794 228.599 73.3705C228.605 71.5561 227.136 70.0925 225.321 70.0925Z" fill="#CFCFCF"/>
<path d="M242.846 70.0925C241.037 70.0925 239.568 71.5616 239.568 73.3705C239.568 75.1794 241.037 76.6484 242.846 76.6484C244.655 76.6484 246.124 75.1794 246.124 73.3705C246.124 71.5561 244.655 70.0925 242.846 70.0925Z" fill="#CFCFCF"/>
<path d="M260.365 70.0925C258.556 70.0925 257.087 71.5616 257.087 73.3705C257.087 75.1794 258.556 76.6484 260.365 76.6484C262.174 76.6484 263.643 75.1794 263.643 73.3705C263.648 71.5561 262.179 70.0925 260.365 70.0925Z" fill="#CFCFCF"/>
<path d="M190.278 87.6113C188.469 87.6113 187 89.0804 187 90.8893C187 92.6982 188.469 94.1672 190.278 94.1672C192.087 94.1672 193.556 92.6982 193.556 90.8893C193.556 89.0804 192.087 87.6113 190.278 87.6113Z" fill="#CFCFCF"/>
<path d="M207.802 87.6113C205.994 87.6113 204.524 89.0804 204.524 90.8893C204.524 92.6982 205.994 94.1672 207.802 94.1672C209.611 94.1672 211.08 92.6982 211.08 90.8893C211.08 89.0804 209.611 87.6113 207.802 87.6113Z" fill="#CFCFCF"/>
<path d="M225.321 87.6113C223.512 87.6113 222.043 89.0804 222.043 90.8893C222.043 92.6982 223.512 94.1672 225.321 94.1672C227.13 94.1672 228.599 92.6982 228.599 90.8893C228.605 89.0804 227.136 87.6113 225.321 87.6113Z" fill="#CFCFCF"/>
<path d="M242.846 87.6113C241.037 87.6113 239.568 89.0804 239.568 90.8893C239.568 92.6982 241.037 94.1672 242.846 94.1672C244.655 94.1672 246.124 92.6982 246.124 90.8893C246.124 89.0804 244.655 87.6113 242.846 87.6113Z" fill="#CFCFCF"/>
<path d="M260.365 87.6113C258.556 87.6113 257.087 89.0804 257.087 90.8893C257.087 92.6982 258.556 94.1672 260.365 94.1672C262.174 94.1672 263.643 92.6982 263.643 90.8893C263.648 89.0804 262.179 87.6113 260.365 87.6113Z" fill="#CFCFCF"/>
<path d="M190.278 105.136C188.469 105.136 187 106.605 187 108.414C187 110.223 188.469 111.692 190.278 111.692C192.087 111.692 193.556 110.223 193.556 108.414C193.556 106.605 192.087 105.136 190.278 105.136Z" fill="#CFCFCF"/>
<path d="M207.802 105.136C205.994 105.136 204.524 106.605 204.524 108.414C204.524 110.223 205.994 111.692 207.802 111.692C209.611 111.692 211.08 110.223 211.08 108.414C211.08 106.605 209.611 105.136 207.802 105.136Z" fill="#CFCFCF"/>
<path d="M225.321 105.136C223.512 105.136 222.043 106.605 222.043 108.414C222.043 110.223 223.512 111.692 225.321 111.692C227.13 111.692 228.599 110.223 228.599 108.414C228.605 106.605 227.136 105.136 225.321 105.136Z" fill="#CFCFCF"/>
<path d="M242.846 105.136C241.037 105.136 239.568 106.605 239.568 108.414C239.568 110.223 241.037 111.692 242.846 111.692C244.655 111.692 246.124 110.223 246.124 108.414C246.124 106.605 244.655 105.136 242.846 105.136Z" fill="#CFCFCF"/>
<path d="M260.365 105.136C258.556 105.136 257.087 106.605 257.087 108.414C257.087 110.223 258.556 111.692 260.365 111.692C262.174 111.692 263.643 110.223 263.643 108.414C263.648 106.605 262.179 105.136 260.365 105.136Z" fill="#CFCFCF"/>
<path d="M190.278 122.655C188.469 122.655 187 124.124 187 125.933C187 127.742 188.469 129.211 190.278 129.211C192.087 129.211 193.556 127.742 193.556 125.933C193.556 124.124 192.087 122.655 190.278 122.655Z" fill="#CFCFCF"/>
<path d="M207.802 122.655C205.994 122.655 204.524 124.124 204.524 125.933C204.524 127.742 205.994 129.211 207.802 129.211C209.611 129.211 211.08 127.742 211.08 125.933C211.08 124.124 209.611 122.655 207.802 122.655Z" fill="#CFCFCF"/>
<path d="M225.321 122.655C223.512 122.655 222.043 124.124 222.043 125.933C222.043 127.742 223.512 129.211 225.321 129.211C227.13 129.211 228.599 127.742 228.599 125.933C228.605 124.124 227.136 122.655 225.321 122.655Z" fill="#CFCFCF"/>
<path d="M242.846 122.655C241.037 122.655 239.568 124.124 239.568 125.933C239.568 127.742 241.037 129.211 242.846 129.211C244.655 129.211 246.124 127.742 246.124 125.933C246.124 124.124 244.655 122.655 242.846 122.655Z" fill="#CFCFCF"/>
<path d="M260.365 122.655C258.556 122.655 257.087 124.124 257.087 125.933C257.087 127.742 258.556 129.211 260.365 129.211C262.174 129.211 263.643 127.742 263.643 125.933C263.648 124.124 262.179 122.655 260.365 122.655Z" fill="#CFCFCF"/>
<path d="M190.278 140.179C188.469 140.179 187 141.648 187 143.457C187 145.266 188.469 146.735 190.278 146.735C192.087 146.735 193.556 145.266 193.556 143.457C193.556 141.648 192.087 140.179 190.278 140.179Z" fill="#CFCFCF"/>
<path d="M207.802 140.179C205.994 140.179 204.524 141.648 204.524 143.457C204.524 145.266 205.994 146.735 207.802 146.735C209.611 146.735 211.08 145.266 211.08 143.457C211.08 141.648 209.611 140.179 207.802 140.179Z" fill="#CFCFCF"/>
<path d="M225.321 140.179C223.512 140.179 222.043 141.648 222.043 143.457C222.043 145.266 223.512 146.735 225.321 146.735C227.13 146.735 228.599 145.266 228.599 143.457C228.599 141.648 227.136 140.179 225.321 140.179Z" fill="#CFCFCF"/>
<path d="M242.846 140.179C241.037 140.179 239.568 141.648 239.568 143.457C239.568 145.266 241.037 146.735 242.846 146.735C244.655 146.735 246.124 145.266 246.124 143.457C246.124 141.648 244.655 140.179 242.846 140.179Z" fill="#CFCFCF"/>
<path d="M260.365 140.179C258.556 140.179 257.087 141.648 257.087 143.457C257.087 145.266 258.556 146.735 260.365 146.735C262.174 146.735 263.643 145.266 263.643 143.457C263.643 141.648 262.179 140.179 260.365 140.179Z" fill="#CFCFCF"/>
<path d="M190.278 212C188.469 212 187 213.469 187 215.278C187 217.087 188.469 218.556 190.278 218.556C192.087 218.556 193.556 217.087 193.556 215.278C193.556 213.469 192.087 212 190.278 212Z" fill="#CFCFCF"/>
<path d="M207.802 212C205.994 212 204.524 213.469 204.524 215.278C204.524 217.087 205.994 218.556 207.802 218.556C209.611 218.556 211.08 217.087 211.08 215.278C211.08 213.469 209.611 212 207.802 212Z" fill="#CFCFCF"/>
<path d="M225.321 212C223.512 212 222.043 213.469 222.043 215.278C222.043 217.087 223.512 218.556 225.321 218.556C227.13 218.556 228.599 217.087 228.599 215.278C228.605 213.469 227.136 212 225.321 212Z" fill="#CFCFCF"/>
<path d="M242.846 212C241.037 212 239.568 213.469 239.568 215.278C239.568 217.087 241.037 218.556 242.846 218.556C244.655 218.556 246.124 217.087 246.124 215.278C246.124 213.469 244.655 212 242.846 212Z" fill="#CFCFCF"/>
<path d="M260.365 218.561C262.174 218.561 263.643 217.092 263.643 215.283C263.643 213.474 262.174 212.005 260.365 212.005C258.556 212.005 257.087 213.474 257.087 215.283C257.087 217.092 258.556 218.561 260.365 218.561Z" fill="#CFCFCF"/>
<path d="M190.278 229.524C188.469 229.524 187 230.993 187 232.802C187 234.611 188.469 236.08 190.278 236.08C192.087 236.08 193.556 234.611 193.556 232.802C193.556 230.993 192.087 229.524 190.278 229.524Z" fill="#CFCFCF"/>
<path d="M207.802 229.524C205.994 229.524 204.524 230.993 204.524 232.802C204.524 234.611 205.994 236.08 207.802 236.08C209.611 236.08 211.08 234.611 211.08 232.802C211.08 230.993 209.611 229.524 207.802 229.524Z" fill="#CFCFCF"/>
<path d="M225.321 229.524C223.512 229.524 222.043 230.993 222.043 232.802C222.043 234.611 223.512 236.08 225.321 236.08C227.13 236.08 228.599 234.611 228.599 232.802C228.605 230.993 227.136 229.524 225.321 229.524Z" fill="#CFCFCF"/>
<path d="M242.846 229.524C241.037 229.524 239.568 230.993 239.568 232.802C239.568 234.611 241.037 236.08 242.846 236.08C244.655 236.08 246.124 234.611 246.124 232.802C246.124 230.993 244.655 229.524 242.846 229.524Z" fill="#CFCFCF"/>
<path d="M260.365 229.524C258.556 229.524 257.087 230.993 257.087 232.802C257.087 234.611 258.556 236.08 260.365 236.08C262.174 236.08 263.643 234.611 263.643 232.802C263.648 230.993 262.179 229.524 260.365 229.524Z" fill="#CFCFCF"/>
<path d="M190.278 247.043C188.469 247.043 187 248.512 187 250.321C187 252.13 188.469 253.599 190.278 253.599C192.087 253.599 193.556 252.13 193.556 250.321C193.556 248.512 192.087 247.043 190.278 247.043Z" fill="#CFCFCF"/>
<path d="M207.802 247.043C205.994 247.043 204.524 248.512 204.524 250.321C204.524 252.13 205.994 253.599 207.802 253.599C209.611 253.599 211.08 252.13 211.08 250.321C211.08 248.512 209.611 247.043 207.802 247.043Z" fill="#CFCFCF"/>
<path d="M225.321 247.043C223.512 247.043 222.043 248.512 222.043 250.321C222.043 252.13 223.512 253.599 225.321 253.599C227.13 253.599 228.599 252.13 228.599 250.321C228.605 248.512 227.136 247.043 225.321 247.043Z" fill="#CFCFCF"/>
<path d="M242.846 247.043C241.037 247.043 239.568 248.512 239.568 250.321C239.568 252.13 241.037 253.599 242.846 253.599C244.655 253.599 246.124 252.13 246.124 250.321C246.124 248.512 244.655 247.043 242.846 247.043Z" fill="#CFCFCF"/>
<path d="M260.365 247.043C258.556 247.043 257.087 248.512 257.087 250.321C257.087 252.13 258.556 253.599 260.365 253.599C262.174 253.599 263.643 252.13 263.643 250.321C263.648 248.512 262.179 247.043 260.365 247.043Z" fill="#CFCFCF"/>
<path d="M190.278 264.568C188.469 264.568 187 266.037 187 267.846C187 269.655 188.469 271.124 190.278 271.124C192.087 271.124 193.556 269.655 193.556 267.846C193.556 266.037 192.087 264.568 190.278 264.568Z" fill="#CFCFCF"/>
<path d="M207.802 264.568C205.994 264.568 204.524 266.037 204.524 267.846C204.524 269.655 205.994 271.124 207.802 271.124C209.611 271.124 211.08 269.655 211.08 267.846C211.08 266.037 209.611 264.568 207.802 264.568Z" fill="#CFCFCF"/>
<path d="M225.321 264.568C223.512 264.568 222.043 266.037 222.043 267.846C222.043 269.655 223.512 271.124 225.321 271.124C227.13 271.124 228.599 269.655 228.599 267.846C228.605 266.037 227.136 264.568 225.321 264.568Z" fill="#CFCFCF"/>
<path d="M242.846 264.568C241.037 264.568 239.568 266.037 239.568 267.846C239.568 269.655 241.037 271.124 242.846 271.124C244.655 271.124 246.124 269.655 246.124 267.846C246.124 266.037 244.655 264.568 242.846 264.568Z" fill="#CFCFCF"/>
<path d="M260.365 264.568C258.556 264.568 257.087 266.037 257.087 267.846C257.087 269.655 258.556 271.124 260.365 271.124C262.174 271.124 263.643 269.655 263.643 267.846C263.648 266.037 262.179 264.568 260.365 264.568Z" fill="#CFCFCF"/>
<path d="M190.278 282.093C188.469 282.093 187 283.562 187 285.37C187 287.179 188.469 288.648 190.278 288.648C192.087 288.648 193.556 287.179 193.556 285.37C193.556 283.556 192.087 282.093 190.278 282.093Z" fill="#CFCFCF"/>
<path d="M207.802 282.093C205.994 282.093 204.524 283.562 204.524 285.37C204.524 287.179 205.994 288.648 207.802 288.648C209.611 288.648 211.08 287.179 211.08 285.37C211.08 283.556 209.611 282.093 207.802 282.093Z" fill="#CFCFCF"/>
<path d="M225.321 282.093C223.512 282.093 222.043 283.562 222.043 285.37C222.043 287.179 223.512 288.648 225.321 288.648C227.13 288.648 228.599 287.179 228.599 285.37C228.605 283.556 227.136 282.093 225.321 282.093Z" fill="#CFCFCF"/>
<path d="M242.846 282.093C241.037 282.093 239.568 283.562 239.568 285.37C239.568 287.179 241.037 288.648 242.846 288.648C244.655 288.648 246.124 287.179 246.124 285.37C246.124 283.556 244.655 282.093 242.846 282.093Z" fill="#CFCFCF"/>
<path d="M260.365 282.093C258.556 282.093 257.087 283.562 257.087 285.37C257.087 287.179 258.556 288.648 260.365 288.648C262.174 288.648 263.643 287.179 263.643 285.37C263.648 283.556 262.179 282.093 260.365 282.093Z" fill="#CFCFCF"/>
<path d="M190.278 299.611C188.469 299.611 187 301.08 187 302.889C187 304.698 188.469 306.167 190.278 306.167C192.087 306.167 193.556 304.698 193.556 302.889C193.556 301.08 192.087 299.611 190.278 299.611Z" fill="#CFCFCF"/>
<path d="M207.802 299.611C205.994 299.611 204.524 301.08 204.524 302.889C204.524 304.698 205.994 306.167 207.802 306.167C209.611 306.167 211.08 304.698 211.08 302.889C211.08 301.08 209.611 299.611 207.802 299.611Z" fill="#CFCFCF"/>
<path d="M225.321 299.611C223.512 299.611 222.043 301.08 222.043 302.889C222.043 304.698 223.512 306.167 225.321 306.167C227.13 306.167 228.599 304.698 228.599 302.889C228.605 301.08 227.136 299.611 225.321 299.611Z" fill="#CFCFCF"/>
<path d="M242.846 299.611C241.037 299.611 239.568 301.08 239.568 302.889C239.568 304.698 241.037 306.167 242.846 306.167C244.655 306.167 246.124 304.698 246.124 302.889C246.124 301.08 244.655 299.611 242.846 299.611Z" fill="#CFCFCF"/>
<path d="M260.365 299.611C258.556 299.611 257.087 301.08 257.087 302.889C257.087 304.698 258.556 306.167 260.365 306.167C262.174 306.167 263.643 304.698 263.643 302.889C263.648 301.08 262.179 299.611 260.365 299.611Z" fill="#CFCFCF"/>
<path d="M190.278 317.136C188.469 317.136 187 318.605 187 320.414C187 322.223 188.469 323.692 190.278 323.692C192.087 323.692 193.556 322.223 193.556 320.414C193.556 318.605 192.087 317.136 190.278 317.136Z" fill="#CFCFCF"/>
<path d="M207.802 317.136C205.994 317.136 204.524 318.605 204.524 320.414C204.524 322.223 205.994 323.692 207.802 323.692C209.611 323.692 211.08 322.223 211.08 320.414C211.08 318.605 209.611 317.136 207.802 317.136Z" fill="#CFCFCF"/>
<path d="M225.321 317.136C223.512 317.136 222.043 318.605 222.043 320.414C222.043 322.223 223.512 323.692 225.321 323.692C227.13 323.692 228.599 322.223 228.599 320.414C228.605 318.605 227.136 317.136 225.321 317.136Z" fill="#CFCFCF"/>
<path d="M242.846 317.136C241.037 317.136 239.568 318.605 239.568 320.414C239.568 322.223 241.037 323.692 242.846 323.692C244.655 323.692 246.124 322.223 246.124 320.414C246.124 318.605 244.655 317.136 242.846 317.136Z" fill="#CFCFCF"/>
<path d="M260.365 317.136C258.556 317.136 257.087 318.605 257.087 320.414C257.087 322.223 258.556 323.692 260.365 323.692C262.174 323.692 263.643 322.223 263.643 320.414C263.648 318.605 262.179 317.136 260.365 317.136Z" fill="#CFCFCF"/>
<path d="M190.278 334.655C188.469 334.655 187 336.124 187 337.933C187 339.742 188.469 341.211 190.278 341.211C192.087 341.211 193.556 339.742 193.556 337.933C193.556 336.124 192.087 334.655 190.278 334.655Z" fill="#CFCFCF"/>
<path d="M207.802 334.655C205.994 334.655 204.524 336.124 204.524 337.933C204.524 339.742 205.994 341.211 207.802 341.211C209.611 341.211 211.08 339.742 211.08 337.933C211.08 336.124 209.611 334.655 207.802 334.655Z" fill="#CFCFCF"/>
<path d="M225.321 334.655C223.512 334.655 222.043 336.124 222.043 337.933C222.043 339.742 223.512 341.211 225.321 341.211C227.13 341.211 228.599 339.742 228.599 337.933C228.605 336.124 227.136 334.655 225.321 334.655Z" fill="#CFCFCF"/>
<path d="M242.846 334.655C241.037 334.655 239.568 336.124 239.568 337.933C239.568 339.742 241.037 341.211 242.846 341.211C244.655 341.211 246.124 339.742 246.124 337.933C246.124 336.124 244.655 334.655 242.846 334.655Z" fill="#CFCFCF"/>
<path d="M260.365 334.655C258.556 334.655 257.087 336.124 257.087 337.933C257.087 339.742 258.556 341.211 260.365 341.211C262.174 341.211 263.643 339.742 263.643 337.933C263.648 336.124 262.179 334.655 260.365 334.655Z" fill="#CFCFCF"/>
<path d="M190.278 352.179C188.469 352.179 187 353.648 187 355.457C187 357.266 188.469 358.735 190.278 358.735C192.087 358.735 193.556 357.266 193.556 355.457C193.556 353.648 192.087 352.179 190.278 352.179Z" fill="#CFCFCF"/>
<path d="M207.802 352.179C205.994 352.179 204.524 353.648 204.524 355.457C204.524 357.266 205.994 358.735 207.802 358.735C209.611 358.735 211.08 357.266 211.08 355.457C211.08 353.648 209.611 352.179 207.802 352.179Z" fill="#CFCFCF"/>
<path d="M225.321 352.179C223.512 352.179 222.043 353.648 222.043 355.457C222.043 357.266 223.512 358.735 225.321 358.735C227.13 358.735 228.599 357.266 228.599 355.457C228.599 353.648 227.136 352.179 225.321 352.179Z" fill="#CFCFCF"/>
<path d="M242.846 352.179C241.037 352.179 239.568 353.648 239.568 355.457C239.568 357.266 241.037 358.735 242.846 358.735C244.655 358.735 246.124 357.266 246.124 355.457C246.124 353.648 244.655 352.179 242.846 352.179Z" fill="#CFCFCF"/>
<path d="M260.365 352.179C258.556 352.179 257.087 353.648 257.087 355.457C257.087 357.266 258.556 358.735 260.365 358.735C262.174 358.735 263.643 357.266 263.643 355.457C263.643 353.648 262.179 352.179 260.365 352.179Z" fill="#CFCFCF"/>
<g opacity="0.66" filter="url(#filter0_f_102_172)">
<rect x="50" y="98" width="349" height="227" rx="12" fill="url(#paint0_linear_102_172)"/>
</g>
<rect x="25" y="52" width="400" height="260" rx="12" fill="url(#paint1_linear_102_172)"/>
<rect x="25" y="117" width="400" height="60" fill="#CDCDCD" fill-opacity="0.3"/>
<g clip-path="url(#clip0_102_172)">
<path d="M373.766 262.48L370.328 258.502C370.244 258.406 370.193 258.286 370.182 258.159C370.17 258.032 370.199 257.905 370.265 257.796L376.563 247.296C376.646 247.158 376.781 247.058 376.938 247.019C377.095 246.98 377.261 247.004 377.4 247.086L381.698 249.635C381.837 249.717 381.937 249.851 381.977 250.007C382.016 250.163 381.992 250.328 381.909 250.466L374.752 262.397C374.702 262.479 374.633 262.548 374.552 262.599C374.47 262.65 374.377 262.68 374.281 262.689C374.184 262.697 374.088 262.682 373.998 262.646C373.909 262.61 373.829 262.553 373.766 262.48Z" fill="white"/>
<path opacity="0.2" d="M391.681 249.3C391.788 249.363 391.882 249.445 391.958 249.544C392.033 249.643 392.087 249.755 392.118 249.875C392.149 249.995 392.155 250.119 392.137 250.242C392.119 250.364 392.077 250.481 392.012 250.587L378.911 272.119L377.138 275.033L377.092 275.116L376.227 276.542C376.148 276.671 376.039 276.78 375.91 276.859C375.78 276.938 375.634 276.986 375.482 276.998C375.33 277.01 375.178 276.987 375.037 276.929C374.896 276.871 374.771 276.782 374.672 276.667L373.753 275.592L359.726 259.355C359.645 259.262 359.584 259.153 359.545 259.036C359.507 258.918 359.492 258.794 359.503 258.671C359.513 258.548 359.548 258.428 359.606 258.319C359.663 258.209 359.742 258.112 359.838 258.033L363.127 255.297C363.321 255.136 363.571 255.057 363.823 255.077C364.076 255.098 364.31 255.216 364.475 255.406L373.799 266.194C373.898 266.308 374.023 266.397 374.164 266.454C374.304 266.511 374.456 266.535 374.607 266.522C374.758 266.51 374.904 266.463 375.034 266.384C375.163 266.305 375.272 266.197 375.351 266.069L386.668 247.461C386.8 247.247 387.012 247.093 387.258 247.032C387.503 246.971 387.763 247.008 387.98 247.136L391.681 249.3Z" fill="white"/>
<path d="M366.96 271.521C367.07 271.65 367.137 271.811 367.151 271.979C367.165 272.148 367.126 272.317 367.038 272.463L365.775 274.569L364.555 276.604C364.488 276.715 364.395 276.809 364.285 276.877C364.174 276.946 364.049 276.987 363.919 276.998C363.789 277.009 363.658 276.988 363.538 276.939C363.418 276.889 363.311 276.811 363.227 276.712L348.194 259.075C348.124 258.994 348.072 258.9 348.039 258.798C348.006 258.696 347.994 258.589 348.003 258.483C348.012 258.376 348.042 258.272 348.091 258.177C348.14 258.082 348.208 257.998 348.29 257.929L351.792 254.983C351.874 254.914 351.969 254.862 352.072 254.829C352.174 254.796 352.282 254.784 352.389 254.793C352.496 254.802 352.601 254.832 352.696 254.881C352.792 254.93 352.877 254.997 352.946 255.079L366.96 271.521Z" fill="white"/>
</g>
<defs>
<filter id="filter0_f_102_172" x="0" y="48" width="449" height="327" filterUnits="userSpaceOnUse" color-interpolation-filters="sRGB">
<feFlood flood-opacity="0" result="BackgroundImageFix"/>
<feBlend mode="normal" in="SourceGraphic" in2="BackgroundImageFix" result="shape"/>
<feGaussianBlur stdDeviation="25" result="effect1_foregroundBlur_102_172"/>
</filter>
<linearGradient id="paint0_linear_102_172" x1="50" y1="336.924" x2="382.998" y2="137.354" gradientUnits="userSpaceOnUse">
<stop stop-color="#383838"/>
<stop offset="1" stop-color="#B6B6B6"/>
</linearGradient>
<linearGradient id="paint1_linear_102_172" x1="25" y1="325.658" x2="406.527" y2="96.8524" gradientUnits="userSpaceOnUse">
<stop/>
<stop offset="1" stop-color="#C2C2C2"/>
</linearGradient>
<clipPath id="clip0_102_172">
<rect width="89" height="30" fill="white" transform="translate(303 247)"/>
</clipPath>
</defs>
</svg>
