<svg width="21" height="16" viewBox="0 0 21 16" fill="none" xmlns="http://www.w3.org/2000/svg">
<path fill-rule="evenodd" clip-rule="evenodd" d="M14.1139 8C14.1139 9.96368 12.4959 11.5556 10.5 11.5556C8.50413 11.5556 6.88615 9.96368 6.88615 8C6.88615 6.03632 8.50413 4.44444 10.5 4.44444C12.4959 4.44444 14.1139 6.03632 14.1139 8ZM12.3069 8C12.3069 8.98184 11.4979 9.77778 10.5 9.77778C9.50206 9.77778 8.69308 8.98184 8.69308 8C8.69308 7.01816 9.50206 6.22222 10.5 6.22222C11.4979 6.22222 12.3069 7.01816 12.3069 8Z" fill="#D6DCE1"/>
<path fill-rule="evenodd" clip-rule="evenodd" d="M10.5 0C15.5517 0 19.7965 3.3994 21 8C19.7965 12.6006 15.5517 16 10.5 16C5.44827 16 1.20353 12.6006 0 8C1.20353 3.3994 5.44827 0 10.5 0ZM10.5 14.2222C6.45649 14.2222 3.02955 11.6072 1.87846 8C3.02955 4.39277 6.45649 1.77778 10.5 1.77778C14.5435 1.77778 17.9704 4.39277 19.1215 8C17.9704 11.6072 14.5435 14.2222 10.5 14.2222Z" fill="#D6DCE1"/>
</svg>
