<svg width="53" height="59" viewBox="0 0 53 59" fill="none" xmlns="http://www.w3.org/2000/svg">
<path opacity="0.3" d="M1.95727 38.0215C-0.949936 40.5586 -0.61851 45.4258 2.95159 47.4316L19.2448 56.5856C23.6393 59.0546 28.9924 59.0546 33.3869 56.5856L49.6801 47.4316C53.2502 45.4258 53.5816 40.5586 50.6744 38.0215L35.37 46.62C29.7439 49.7809 22.8877 49.7809 17.2617 46.62L1.95727 38.0215Z" fill="#343C45"/>
<path opacity="0.3" d="M1.95727 24.9663C-0.949936 27.5034 -0.61851 32.3706 2.95159 34.3764L19.2448 43.5305C23.6393 45.9994 28.9924 45.9994 33.3869 43.5305L49.6801 34.3764C53.2502 32.3707 53.5816 27.5034 50.6744 24.9663L35.37 33.5648C29.7439 36.7257 22.8877 36.7257 17.2617 33.5648L1.95727 24.9663Z" fill="#343C45"/>
<path d="M33.3869 1.85172C28.9924 -0.617237 23.6393 -0.617242 19.2448 1.85172L2.95159 11.0057C-0.983852 13.2168 -0.983874 18.905 2.95159 21.116L19.2448 30.2701C23.6393 32.739 28.9924 32.739 33.3869 30.2701L49.6801 21.116C53.6155 18.905 53.6155 13.2168 49.6801 11.0057L33.3869 1.85172Z" fill="#343C45"/>
</svg>
