<svg width="47" height="59" viewBox="0 0 47 59" fill="none" xmlns="http://www.w3.org/2000/svg">
<path opacity="0.3" d="M12.4902 50.5962C13.8122 55.3857 18.2006 58.903 23.4106 58.903H35.4933C41.7493 58.903 46.8208 53.8315 46.8208 47.5755V23.4101C46.8208 18.2001 43.3035 13.8117 38.514 12.4897V35.4928C38.514 43.8342 31.7519 50.5962 23.4106 50.5962H12.4902Z" fill="#343C45"/>
<path d="M11.3275 0C5.07151 0 0 5.07151 0 11.3275V35.493C0 41.749 5.07151 46.8205 11.3275 46.8205H23.4103C29.6663 46.8205 34.7378 41.749 34.7378 35.493V11.3275C34.7378 5.07151 29.6663 0 23.4103 0H11.3275Z" fill="#343C45"/>
</svg>
