<svg width="30" height="29" viewBox="0 0 30 29" fill="none" xmlns="http://www.w3.org/2000/svg">
<path d="M12.8571 12.8571V8.57143L20 14.2857L12.8571 20V15.7143H0V12.8571H12.8571ZM2.08286 18.5714H5.11714C6.11435 21.0273 7.93387 23.0603 10.2645 24.3228C12.595 25.5853 15.2919 25.9987 17.8936 25.4925C20.4954 24.9862 22.8404 23.5917 24.5276 21.5475C26.2148 19.5032 27.1392 16.9363 27.1429 14.2857C27.1443 11.6324 26.2225 9.06119 24.5356 7.01317C22.8486 4.96516 20.5016 3.56794 17.8971 3.06116C15.2926 2.55438 12.5929 2.96963 10.2611 4.23568C7.9293 5.50173 6.11067 7.53969 5.11714 10H2.08286C3.90286 4.20429 9.31714 0 15.7143 0C23.6043 0 30 6.39571 30 14.2857C30 22.1757 23.6043 28.5714 15.7143 28.5714C9.31714 28.5714 3.90286 24.3671 2.08286 18.5714Z" fill="#43D498"/>
</svg>
