<svg width="40" height="40" viewBox="0 0 40 40" fill="none" xmlns="http://www.w3.org/2000/svg">
<path d="M36.6666 35H3.33331V31.6667H4.99998V6.66667C4.99998 6.22464 5.17557 5.80072 5.48814 5.48816C5.8007 5.17559 6.22462 5 6.66665 5H30C30.442 5 30.8659 5.17559 31.1785 5.48816C31.4911 5.80072 31.6666 6.22464 31.6666 6.66667V15H35V31.6667H36.6666V35ZM28.3333 31.6667H31.6666V18.3333H21.6666V31.6667H25V21.6667H28.3333V31.6667ZM28.3333 15V8.33333H8.33331V31.6667H18.3333V15H28.3333ZM11.6666 18.3333H15V21.6667H11.6666V18.3333ZM11.6666 25H15V28.3333H11.6666V25ZM11.6666 11.6667H15V15H11.6666V11.6667Z" fill="#A6B2BD"/>
</svg>
