<svg width="59" height="48" viewBox="0 0 59 48" fill="none" xmlns="http://www.w3.org/2000/svg">
<path opacity="0.3" d="M0.015625 14.8448C0.368902 6.58664 7.17566 0 15.5208 0H42.5114C50.8566 0 57.6633 6.58664 58.0166 14.8448H0.015625Z" fill="#343C45"/>
<path fill-rule="evenodd" clip-rule="evenodd" d="M58.0298 18.8936V31.7141C58.0298 40.2853 51.0814 47.2337 42.5102 47.2337H15.5196C6.94836 47.2337 0 40.2853 0 31.7141V18.8936H58.0298ZM12.8205 31.0393C11.7025 31.0393 10.7962 31.9456 10.7962 33.0636C10.7962 34.1816 11.7025 35.0879 12.8205 35.0879H26.3158C27.4338 35.0879 28.3401 34.1816 28.3401 33.0636C28.3401 31.9456 27.4338 31.0393 26.3158 31.0393H12.8205Z" fill="#343C45"/>
</svg>
