<svg width="54" height="53" viewBox="0 0 54 53" fill="none" xmlns="http://www.w3.org/2000/svg">
<path opacity="0.3" fill-rule="evenodd" clip-rule="evenodd" d="M0.226562 29.0251V39.7864C0.226562 46.867 5.96652 52.607 13.0471 52.607H40.9374C48.018 52.607 53.7579 46.867 53.7579 39.7864V29.0229C53.0107 29.5121 52.1852 29.9008 51.2976 30.1671L31.2562 36.1794C28.4737 37.0142 25.5075 37.0142 22.725 36.1794L2.68364 30.1671C1.79727 29.9012 0.97287 29.5133 0.226562 29.0251ZM0.391599 23.1382L26.9922 27.6412L53.5893 23.1388C52.9887 24.6262 51.7392 25.8077 50.1342 26.2892L30.0929 32.3016C28.0692 32.9087 25.912 32.9087 23.8883 32.3016L3.84699 26.2892C2.24174 25.8077 0.99219 24.6259 0.391599 23.1382ZM26.9905 31.6894L26.992 31.6897L26.9918 31.6898L26.9905 31.6894Z" fill="#343C45"/>
<path fill-rule="evenodd" clip-rule="evenodd" d="M5.39812 11.2544C2.41682 11.2544 0 13.6712 0 16.6525V21.1188C0 23.5027 1.56366 25.6043 3.84699 26.2893L23.8883 32.3017C25.912 32.9087 28.0692 32.9087 30.0929 32.3017L50.1342 26.2893C52.4175 25.6043 53.9812 23.5027 53.9812 21.1188V16.6525C53.9812 13.6712 51.5644 11.2544 48.5831 11.2544H5.39812ZM27.7406 20.5087C27.7406 20.0945 27.4048 19.7587 26.9906 19.7587C26.5764 19.7587 26.2406 20.0945 26.2406 20.5087V25.1356C26.2406 25.5498 26.5764 25.8856 26.9906 25.8856C27.4048 25.8856 27.7406 25.5498 27.7406 25.1356V20.5087Z" fill="#343C45"/>
<path d="M35.9859 11.2539V4C35.9859 2.89543 35.0905 2 33.9859 2H19.9922C18.8876 2 17.9922 2.89543 17.9922 4L17.9922 11.2539" stroke="#343C45" stroke-width="4"/>
</svg>
