<svg width="40" height="39" viewBox="0 0 40 39" fill="none" xmlns="http://www.w3.org/2000/svg">
<path d="M17.1429 17.1429V11.4286L26.6667 19.0476L17.1429 26.6667V20.9524H0V17.1429H17.1429ZM2.77714 24.7619H6.82286C8.15247 28.0363 10.5785 30.747 13.6859 32.4304C16.7934 34.1137 20.3892 34.665 23.8582 33.99C27.3272 33.315 30.4539 31.4556 32.7035 28.73C34.953 26.0043 36.1856 22.5817 36.1905 19.0476C36.1924 15.5098 34.9634 12.0816 32.7141 9.3509C30.4648 6.62021 27.3355 4.75725 23.8628 4.08155C20.3901 3.40584 16.7906 3.95951 13.6815 5.64758C10.5724 7.33564 8.14756 10.0529 6.82286 13.3333H2.77714C5.20381 5.60571 12.4229 0 20.9524 0C31.4724 0 40 8.52762 40 19.0476C40 29.5676 31.4724 38.0952 20.9524 38.0952C12.4229 38.0952 5.20381 32.4895 2.77714 24.7619Z" fill="#43D498"/>
</svg>
