<svg width="161" height="54" viewBox="0 0 161 54" fill="none" xmlns="http://www.w3.org/2000/svg">
<g clip-path="url(#clip0_128_1024)">
<path d="M148.179 0.0001755H12.8283C12.3349 0.0001755 11.8475 0.0001755 11.3554 0.0028755C10.9435 0.0055755 10.5349 0.013419 10.119 0.0200205C9.21556 0.0306879 8.31425 0.110438 7.42289 0.258579C6.53278 0.409945 5.67056 0.695312 4.86538 1.10503C4.06119 1.51821 3.32638 2.0551 2.6876 2.69622C2.04547 3.33554 1.5102 4.0745 1.10238 4.88469C0.693437 5.69327 0.409873 6.55974 0.261485 7.45417C0.111686 8.34748 0.0310773 9.25108 0.0203833 10.1569C0.00789769 10.5708 0.00657917 10.9861 0 11.4V42.6043C0.00657917 43.0235 0.00789769 43.4295 0.0203833 43.8489C0.0310806 44.7546 0.111689 45.6582 0.261485 46.5514C0.409464 47.4464 0.693044 48.3133 1.10238 49.1222C1.51001 49.9298 2.04536 50.6658 2.6876 51.3015C3.32395 51.9455 4.05924 52.4827 4.86538 52.8928C5.67055 53.3036 6.53268 53.5907 7.42289 53.7444C8.3144 53.8913 9.21562 53.9711 10.119 53.983C10.5349 53.9922 10.9435 53.9975 11.3554 53.9975C11.8474 54.0002 12.3349 54.0002 12.8283 54.0002H148.179C148.663 54.0002 149.154 54.0002 149.637 53.9975C150.047 53.9975 150.468 53.9922 150.878 53.983C151.779 53.9717 152.679 53.8919 153.569 53.7444C154.462 53.5896 155.327 53.3026 156.136 52.8928C156.941 52.4825 157.676 51.9453 158.312 51.3015C158.952 50.6633 159.489 49.9278 159.902 49.1222C160.308 48.3127 160.589 47.4459 160.735 46.5514C160.885 45.658 160.968 44.7547 160.984 43.8489C160.99 43.4295 160.99 43.0235 160.99 42.6043C161 42.1138 161 41.6261 161 41.1277V12.874C161 12.3796 161 11.8891 160.99 11.4C160.99 10.9861 160.99 10.5708 160.984 10.1568C160.968 9.25095 160.885 8.34754 160.735 7.45412C160.588 6.56021 160.307 5.6938 159.902 4.88464C159.071 3.26069 157.754 1.93881 156.136 1.10491C155.327 0.696191 154.462 0.4109 153.569 0.258458C152.679 0.109664 151.78 0.029886 150.878 0.0198315C150.468 0.0132435 150.047 0.0053325 149.637 0.0027C149.154 0 148.663 0 148.179 0V0.0001755Z" fill="#A6A6A6"/>
<path d="M11.3622 52.8187C10.9523 52.8187 10.5522 52.8134 10.1455 52.8042C9.30299 52.7932 8.46242 52.7196 7.63072 52.584C6.8552 52.45 6.10393 52.2007 5.40168 51.8444C4.70588 51.491 4.07126 51.0276 3.52211 50.4719C2.96503 49.9229 2.50122 49.286 2.14909 48.5867C1.79307 47.8828 1.54669 47.1283 1.41852 46.3495C1.2801 45.5126 1.20522 44.6664 1.1945 43.8182C1.18597 43.5335 1.1748 42.5855 1.1748 42.5855V11.3998C1.1748 11.3998 1.1867 10.4664 1.19457 10.1921C1.20483 9.34525 1.27928 8.50038 1.41728 7.66484C1.54569 6.88389 1.79226 6.12721 2.14847 5.421C2.49931 4.72213 2.96054 4.08481 3.51427 3.53377C4.06738 2.97749 4.70404 2.51172 5.40103 2.15344C6.10165 1.79823 6.8515 1.55069 7.62546 1.41912C8.45989 1.28218 9.30337 1.20815 10.1488 1.19764L11.3628 1.18115H149.631L150.86 1.1983C151.697 1.20829 152.533 1.28166 153.36 1.41779C154.142 1.55102 154.899 1.80028 155.608 2.15739C157.004 2.87943 158.14 4.02177 158.857 5.4243C159.208 6.12563 159.451 6.87614 159.577 7.65034C159.717 8.49274 159.795 9.34425 159.811 10.1981C159.815 10.5804 159.815 10.9911 159.815 11.3998C159.826 11.906 159.826 12.3879 159.826 12.8737V41.1274C159.826 41.6178 159.826 42.0964 159.815 42.5789C159.815 43.0179 159.815 43.4201 159.81 43.834C159.794 44.6726 159.717 45.5089 159.58 46.3362C159.454 47.1207 159.209 47.881 158.853 48.5907C158.499 49.2825 158.038 49.9138 157.487 50.4614C156.937 51.02 156.302 51.4861 155.604 51.8418C154.897 52.2009 154.141 52.4511 153.36 52.584C152.528 52.7203 151.688 52.7939 150.845 52.8042C150.451 52.8134 150.038 52.8187 149.638 52.8187L148.179 52.8214L11.3622 52.8187Z" fill="black"/>
<path d="M33.3248 27.4061C33.3393 26.2793 33.6376 25.1745 34.1919 24.1945C34.7463 23.2144 35.5387 22.391 36.4954 21.8008C35.8876 20.9299 35.0858 20.2131 34.1537 19.7075C33.2215 19.2018 32.1847 18.9212 31.1256 18.888C28.8663 18.65 26.676 20.2445 25.5247 20.2445C24.3511 20.2445 22.5785 18.9116 20.6697 18.951C19.435 18.991 18.2317 19.3513 17.1771 19.9967C16.1224 20.642 15.2523 21.5505 14.6517 22.6336C12.0496 27.154 13.9905 33.7974 16.4831 37.4513C17.7301 39.2406 19.1876 41.2392 21.0947 41.1683C22.9609 41.0906 23.6579 39.9742 25.9105 39.9742C28.1423 39.9742 28.7962 41.1683 30.742 41.1232C32.7445 41.0906 34.0062 39.3261 35.2095 37.5199C36.1055 36.245 36.795 34.836 37.2525 33.345C36.089 32.8513 35.0962 32.0248 34.3978 30.9687C33.6993 29.9126 33.3262 28.6736 33.3248 27.4061Z" fill="white"/>
<path d="M29.6493 16.4848C30.7411 15.1696 31.279 13.4792 31.1488 11.7725C29.4807 11.9483 27.9398 12.7482 26.8332 14.0129C26.2921 14.6308 25.8778 15.3496 25.6137 16.1282C25.3497 16.9068 25.2412 17.7301 25.2944 18.5508C26.1288 18.5594 26.9542 18.378 27.7085 18.0201C28.4629 17.6622 29.1264 17.1373 29.6493 16.4848Z" fill="white"/>
<path d="M56.9146 36.6384H50.5462L49.0168 41.1696H46.3193L52.3515 24.4053H55.154L61.1861 41.1696H58.4427L56.9146 36.6384ZM51.2057 34.5474H56.2538L53.7653 27.1936H53.6956L51.2057 34.5474Z" fill="white"/>
<path d="M74.2136 35.0594C74.2136 38.8576 72.1875 41.2979 69.1301 41.2979C68.3556 41.3386 67.5853 41.1596 66.9075 40.7814C66.2297 40.4032 65.6717 39.8411 65.2975 39.1595H65.2396V45.2134H62.7393V28.9475H65.1595V30.9804H65.2055C65.5969 30.3021 66.1644 29.7429 66.8473 29.3625C67.5303 28.982 68.3033 28.7944 69.0841 28.8196C72.1757 28.8196 74.2136 31.2718 74.2136 35.0594ZM71.6436 35.0594C71.6436 32.5849 70.3691 30.958 68.4245 30.958C66.5141 30.958 65.2291 32.6192 65.2291 35.0594C65.2291 37.5221 66.5141 39.1714 68.4245 39.1714C70.3691 39.1714 71.6436 37.5564 71.6436 35.0594Z" fill="white"/>
<path d="M87.6208 35.0594C87.6208 38.8576 85.5948 41.2979 82.5373 41.2979C81.7628 41.3386 80.9926 41.1595 80.3148 40.7814C79.6369 40.4032 79.0789 39.8411 78.7047 39.1595H78.6468V45.2134H76.1465V28.9475H78.5667V30.9804H78.6127C79.0041 30.3021 79.5715 29.7429 80.2545 29.3624C80.9375 28.982 81.7105 28.7944 82.4913 28.8196C85.583 28.8196 87.6208 31.2718 87.6208 35.0594ZM85.0508 35.0594C85.0508 32.5849 83.7763 30.958 81.8318 30.958C79.9214 30.958 78.6364 32.6191 78.6364 35.0594C78.6364 37.5221 79.9214 39.1714 81.8318 39.1714C83.7763 39.1714 85.0508 37.5564 85.0508 35.0594H85.0508Z" fill="white"/>
<path d="M96.4814 36.4988C96.6667 38.1613 98.2762 39.2528 100.476 39.2528C102.583 39.2528 104.099 38.1613 104.099 36.6623C104.099 35.361 103.185 34.5819 101.02 34.048L98.8543 33.5246C95.7864 32.781 94.3621 31.3414 94.3621 29.0052C94.3621 26.1127 96.8743 24.126 100.441 24.126C103.972 24.126 106.392 26.1127 106.474 29.0052H103.95C103.798 27.3322 102.42 26.3224 100.406 26.3224C98.3918 26.3224 97.0135 27.3441 97.0135 28.8312C97.0135 30.0164 97.8938 30.7138 100.047 31.2477L101.888 31.7012C105.316 32.5147 106.74 33.8963 106.74 36.3484C106.74 39.4848 104.25 41.4492 100.29 41.4492C96.5851 41.4492 94.0835 39.531 93.9219 36.4987L96.4814 36.4988Z" fill="white"/>
<path d="M112.137 26.0547V28.9472H114.453V30.9339H112.137V37.6721C112.137 38.7188 112.601 39.2066 113.619 39.2066C113.894 39.2018 114.168 39.1825 114.441 39.1486V41.1235C113.984 41.2093 113.518 41.2482 113.053 41.2395C110.586 41.2395 109.625 40.3101 109.625 37.9397V30.9339H107.854V28.9472H109.625V26.0547H112.137Z" fill="white"/>
<path d="M115.795 35.0591C115.795 31.2134 118.052 28.7969 121.572 28.7969C125.104 28.7969 127.351 31.2134 127.351 35.0591C127.351 38.9153 125.116 41.3213 121.572 41.3213C118.03 41.3213 115.795 38.9153 115.795 35.0591ZM124.803 35.0591C124.803 32.421 123.598 30.8641 121.572 30.8641C119.546 30.8641 118.343 32.4329 118.343 35.0591C118.343 37.7077 119.546 39.2528 121.572 39.2528C123.598 39.2528 124.803 37.7077 124.803 35.0591H124.803Z" fill="white"/>
<path d="M129.412 28.9474H131.797V31.0278H131.855C132.016 30.378 132.395 29.8038 132.929 29.4017C133.463 28.9995 134.118 28.794 134.785 28.8195C135.073 28.8185 135.36 28.8499 135.641 28.9131V31.2598C135.278 31.1483 134.898 31.0971 134.518 31.1082C134.155 31.0934 133.793 31.1577 133.456 31.2966C133.12 31.4355 132.818 31.6457 132.571 31.9129C132.323 32.18 132.136 32.4977 132.022 32.8442C131.909 33.1907 131.871 33.5578 131.912 33.9202V41.1699H129.412L129.412 28.9474Z" fill="white"/>
<path d="M147.169 37.5798C146.832 39.7986 144.679 41.3213 141.924 41.3213C138.38 41.3213 136.181 38.939 136.181 35.1171C136.181 31.2833 138.392 28.7969 141.819 28.7969C145.189 28.7969 147.308 31.1198 147.308 34.8257V35.6853H138.705V35.8369C138.665 36.2867 138.721 36.7399 138.869 37.1663C139.018 37.5926 139.255 37.9825 139.564 38.3099C139.874 38.6374 140.25 38.8949 140.667 39.0654C141.084 39.2359 141.532 39.3155 141.982 39.2989C142.572 39.3545 143.165 39.2172 143.672 38.9074C144.179 38.5977 144.573 38.132 144.795 37.5798L147.169 37.5798ZM138.716 33.9319H144.806C144.829 33.5274 144.768 33.1227 144.627 32.7431C144.486 32.3634 144.269 32.0171 143.988 31.7258C143.707 31.4345 143.37 31.2046 142.997 31.0504C142.623 30.8962 142.222 30.8211 141.819 30.8298C141.411 30.8273 141.008 30.9058 140.631 31.0607C140.254 31.2156 139.912 31.4439 139.623 31.7323C139.335 32.0207 139.106 32.3636 138.951 32.7411C138.795 33.1186 138.715 33.5233 138.716 33.9319V33.9319Z" fill="white"/>
<path d="M50.8929 11.787C51.4171 11.7492 51.9431 11.8287 52.433 12.0196C52.9229 12.2106 53.3645 12.5082 53.7258 12.8911C54.0872 13.274 54.3594 13.7326 54.5227 14.2338C54.686 14.735 54.7365 15.2664 54.6704 15.7895C54.6704 18.3629 53.2842 19.8422 50.8929 19.8422H47.9932V11.787H50.8929ZM49.24 18.703H50.7537C51.1282 18.7255 51.5031 18.6639 51.8509 18.5226C52.1988 18.3814 52.5109 18.1641 52.7645 17.8866C53.0181 17.6091 53.2068 17.2783 53.317 16.9184C53.4271 16.5585 53.4559 16.1784 53.4012 15.8059C53.4519 15.4349 53.4202 15.0572 53.3084 14.6999C53.1965 14.3426 53.0073 14.0146 52.7543 13.7393C52.5013 13.4639 52.1907 13.2482 51.8448 13.1075C51.4989 12.9668 51.1263 12.9046 50.7537 12.9253H49.24V18.703Z" fill="white"/>
<path d="M56.0789 16.8001C56.0409 16.4006 56.0864 15.9975 56.2127 15.6168C56.3389 15.236 56.5431 14.8859 56.8121 14.5889C57.0811 14.2919 57.409 14.0546 57.7748 13.8922C58.1405 13.7299 58.5361 13.646 58.936 13.646C59.336 13.646 59.7315 13.7299 60.0973 13.8922C60.463 14.0546 60.7909 14.2919 61.0599 14.5889C61.3289 14.8859 61.5331 15.236 61.6594 15.6168C61.7856 15.9975 61.8312 16.4006 61.7931 16.8001C61.8319 17.2 61.7869 17.6036 61.661 17.985C61.5351 18.3664 61.331 18.7172 61.0619 19.0148C60.7928 19.3123 60.4647 19.5501 60.0986 19.7128C59.7325 19.8755 59.3365 19.9596 58.936 19.9596C58.5356 19.9596 58.1396 19.8755 57.7735 19.7128C57.4073 19.5501 57.0792 19.3123 56.8101 19.0148C56.541 18.7172 56.337 18.3664 56.2111 17.985C56.0851 17.6036 56.0401 17.2 56.0789 16.8001ZM60.5633 16.8001C60.5633 15.4824 59.9733 14.7118 58.938 14.7118C57.8987 14.7118 57.3141 15.4824 57.3141 16.8001C57.3141 18.1284 57.8987 18.893 58.938 18.893C59.9734 18.893 60.5633 18.1231 60.5633 16.8001H60.5633Z" fill="white"/>
<path d="M69.3887 19.8421H68.1483L66.8962 15.365H66.8016L65.5547 19.8421H64.3262L62.6562 13.7632H63.869L64.9543 18.4018H65.0436L66.2892 13.7632H67.4362L68.6818 18.4018H68.7764L69.8564 13.7632H71.0521L69.3887 19.8421Z" fill="white"/>
<path d="M72.457 13.763H73.608V14.7287H73.6974C73.8489 14.3818 74.1046 14.0911 74.4286 13.8969C74.7527 13.7028 75.1291 13.6149 75.5053 13.6456C75.8001 13.6234 76.0961 13.668 76.3713 13.7761C76.6466 13.8843 76.8941 14.0531 77.0955 14.2703C77.2969 14.4874 77.447 14.7472 77.5347 15.0305C77.6224 15.3138 77.6455 15.6132 77.6023 15.9066V19.8419H76.4066V16.2079C76.4066 15.231 75.9835 14.7452 75.0993 14.7452C74.8991 14.7358 74.6993 14.77 74.5136 14.8454C74.3279 14.9207 74.1605 15.0355 74.0231 15.1818C73.8857 15.3281 73.7815 15.5025 73.7176 15.6931C73.6536 15.8836 73.6315 16.0857 73.6527 16.2857V19.8419H72.457L72.457 13.763Z" fill="white"/>
<path d="M79.5068 11.3901H80.7025V19.8421H79.5068V11.3901Z" fill="white"/>
<path d="M82.365 16.8002C82.327 16.4007 82.3726 15.9976 82.4988 15.6168C82.6251 15.236 82.8293 14.8859 83.0984 14.5889C83.3674 14.2919 83.6953 14.0546 84.0611 13.8922C84.4269 13.7299 84.8225 13.646 85.2225 13.646C85.6224 13.646 86.018 13.7299 86.3838 13.8922C86.7496 14.0546 87.0775 14.2919 87.3465 14.5889C87.6156 14.8859 87.8198 15.236 87.9461 15.6168C88.0723 15.9976 88.1179 16.4007 88.0799 16.8002C88.1186 17.2001 88.0736 17.6038 87.9476 17.9852C87.8217 18.3666 87.6176 18.7173 87.3485 19.0149C87.0794 19.3124 86.7512 19.5502 86.385 19.7129C86.0189 19.8756 85.6229 19.9597 85.2225 19.9597C84.822 19.9597 84.426 19.8756 84.0599 19.7129C83.6937 19.5502 83.3655 19.3124 83.0964 19.0149C82.8273 18.7173 82.6233 18.3666 82.4973 17.9852C82.3713 17.6038 82.3263 17.2001 82.365 16.8002ZM86.8494 16.8002C86.8494 15.4825 86.2594 14.7119 85.2241 14.7119C84.1848 14.7119 83.6002 15.4825 83.6002 16.8002C83.6002 18.1285 84.1848 18.8931 85.2241 18.8931C86.2594 18.8931 86.8494 18.1232 86.8494 16.8002H86.8494Z" fill="white"/>
<path d="M89.3379 18.1231C89.3379 17.0289 90.1499 16.3981 91.5912 16.3084L93.2323 16.2135V15.6888C93.2323 15.0467 92.8092 14.6842 91.992 14.6842C91.3245 14.6842 90.862 14.9301 90.7293 15.3599H89.5718C89.694 14.3157 90.6728 13.646 92.0472 13.646C93.566 13.646 94.4227 14.4047 94.4227 15.6888V19.8423H93.2717V18.988H93.1771C92.9851 19.2944 92.7155 19.5442 92.3958 19.7119C92.0761 19.8796 91.7177 19.9592 91.3574 19.9424C91.103 19.969 90.846 19.9418 90.6028 19.8625C90.3596 19.7833 90.1356 19.6538 89.9453 19.4824C89.7551 19.311 89.6027 19.1014 89.4981 18.8673C89.3935 18.6332 89.3389 18.3797 89.3379 18.1231ZM93.2323 17.6037V17.0955L91.7528 17.1904C90.9185 17.2464 90.5401 17.5312 90.5401 18.0671C90.5401 18.6142 91.0131 18.9326 91.6635 18.9326C91.8541 18.952 92.0466 18.9326 92.2296 18.8758C92.4126 18.819 92.5823 18.7258 92.7287 18.6018C92.875 18.4779 92.9951 18.3256 93.0816 18.1541C93.1681 17.9826 93.2193 17.7955 93.2323 17.6037Z" fill="white"/>
<path d="M95.9941 16.8C95.9941 14.8792 96.9783 13.6623 98.5089 13.6623C98.8876 13.6448 99.2633 13.7358 99.5923 13.9247C99.9213 14.1136 100.19 14.3925 100.367 14.7288H100.456V11.3901H101.652V19.8421H100.506V18.8817H100.411C100.221 19.2158 99.943 19.4913 99.6076 19.6782C99.2723 19.8652 98.8923 19.9565 98.509 19.9423C96.9677 19.9424 95.9941 18.7255 95.9941 16.8ZM97.2292 16.8C97.2292 18.0894 97.835 18.8653 98.848 18.8653C99.8557 18.8653 100.479 18.0782 100.479 16.8053C100.479 15.5384 99.8492 14.7401 98.848 14.7401C97.8415 14.7401 97.2292 15.5212 97.2292 16.8H97.2292Z" fill="white"/>
<path d="M106.599 16.8001C106.561 16.4006 106.607 15.9975 106.733 15.6168C106.859 15.236 107.064 14.8859 107.333 14.5889C107.602 14.2919 107.93 14.0546 108.295 13.8922C108.661 13.7299 109.057 13.646 109.457 13.646C109.856 13.646 110.252 13.7299 110.618 13.8922C110.984 14.0546 111.311 14.2919 111.58 14.5889C111.849 14.8859 112.054 15.236 112.18 15.6168C112.306 15.9975 112.352 16.4006 112.314 16.8001C112.352 17.2 112.307 17.6036 112.181 17.985C112.056 18.3664 111.852 18.7172 111.582 19.0148C111.313 19.3123 110.985 19.5501 110.619 19.7128C110.253 19.8755 109.857 19.9596 109.457 19.9596C109.056 19.9596 108.66 19.8755 108.294 19.7128C107.928 19.5501 107.6 19.3123 107.331 19.0148C107.062 18.7172 106.857 18.3664 106.732 17.985C106.606 17.6036 106.561 17.2 106.599 16.8001ZM111.084 16.8001C111.084 15.4824 110.494 14.7118 109.458 14.7118C108.419 14.7118 107.835 15.4824 107.835 16.8001C107.835 18.1284 108.419 18.893 109.458 18.893C110.494 18.893 111.084 18.1231 111.084 16.8001Z" fill="white"/>
<path d="M113.917 13.763H115.068V14.7287H115.157C115.309 14.3818 115.565 14.0911 115.889 13.8969C116.213 13.7028 116.589 13.6149 116.965 13.6456C117.26 13.6234 117.556 13.668 117.831 13.7761C118.107 13.8843 118.354 14.0531 118.555 14.2703C118.757 14.4874 118.907 14.7472 118.995 15.0305C119.082 15.3138 119.105 15.6132 119.062 15.9066V19.8419H117.867V16.2079C117.867 15.231 117.444 14.7452 116.559 14.7452C116.359 14.7358 116.159 14.77 115.974 14.8454C115.788 14.9207 115.621 15.0355 115.483 15.1818C115.346 15.3281 115.241 15.5025 115.178 15.6931C115.114 15.8836 115.091 16.0857 115.113 16.2857V19.8419H113.917V13.763Z" fill="white"/>
<path d="M125.819 12.2495V13.7907H127.131V14.8012H125.819V17.927C125.819 18.5638 126.08 18.8426 126.676 18.8426C126.828 18.8421 126.98 18.8329 127.131 18.8149V19.8142C126.917 19.8528 126.699 19.8733 126.481 19.8756C125.151 19.8756 124.622 19.4062 124.622 18.2342V14.8011H123.66V13.7906H124.622V12.2495H125.819Z" fill="white"/>
<path d="M128.765 11.3901H129.95V14.7401H130.044C130.203 14.39 130.466 14.0976 130.797 13.9027C131.127 13.7079 131.51 13.62 131.892 13.6511C132.185 13.6351 132.478 13.6842 132.75 13.795C133.022 13.9058 133.267 14.0754 133.466 14.2919C133.665 14.5083 133.815 14.7662 133.903 15.0472C133.992 15.3282 134.017 15.6253 133.978 15.9174V19.8421H132.781V16.2133C132.781 15.2424 132.331 14.7506 131.486 14.7506C131.28 14.7337 131.074 14.7621 130.88 14.8337C130.687 14.9053 130.511 15.0185 130.366 15.1653C130.221 15.3121 130.109 15.4889 130.039 15.6835C129.969 15.8781 129.942 16.0857 129.96 16.2918V19.8421H128.765L128.765 11.3901Z" fill="white"/>
<path d="M140.95 18.201C140.787 18.7566 140.435 19.2372 139.955 19.5587C139.475 19.8802 138.898 20.0221 138.324 19.9597C137.925 19.9703 137.529 19.8936 137.162 19.7349C136.795 19.5762 136.468 19.3394 136.201 19.0409C135.935 18.7424 135.737 18.3893 135.62 18.0061C135.503 17.6229 135.471 17.2189 135.526 16.822C135.473 16.4239 135.505 16.019 135.622 15.6347C135.738 15.2504 135.935 14.8957 136.2 14.5945C136.465 14.2934 136.791 14.0528 137.157 13.8892C137.523 13.7256 137.919 13.6427 138.319 13.6461C140.005 13.6461 141.022 14.8017 141.022 16.7106V17.1292H136.744V17.1964C136.725 17.4195 136.753 17.6441 136.826 17.8557C136.899 18.0673 137.015 18.2613 137.167 18.4253C137.319 18.5892 137.503 18.7195 137.708 18.8078C137.913 18.8961 138.134 18.9404 138.357 18.9379C138.643 18.9724 138.933 18.9207 139.19 18.7895C139.446 18.6583 139.658 18.4534 139.799 18.201L140.95 18.201ZM136.744 16.2419H139.804C139.819 16.0379 139.791 15.833 139.723 15.6403C139.654 15.4477 139.546 15.2715 139.406 15.1232C139.265 14.9749 139.096 14.8577 138.907 14.7792C138.719 14.7006 138.516 14.6625 138.313 14.6672C138.106 14.6646 137.901 14.7035 137.709 14.7817C137.517 14.86 137.343 14.9759 137.197 15.1226C137.051 15.2694 136.936 15.4441 136.858 15.6363C136.78 15.8285 136.741 16.0345 136.744 16.2419H136.744Z" fill="white"/>
</g>
<defs>
<clipPath id="clip0_128_1024">
<rect width="161" height="54" fill="white"/>
</clipPath>
</defs>
</svg>
