<svg xmlns="http://www.w3.org/2000/svg" id="Layer_1" data-name="Layer 1" viewBox="0 0 682.24 682.77">
  <defs>
    <style>
      .cls-1{fill:#09b784}.cls-2{fill:#fefefe}
    </style>
  </defs>
  <g id="jZWbCx.tif">
    <path d="M505.28 741.2c-56.2 0-112.4-.17-168.59.09-22.95.11-44.23-5.36-63.56-17.5-26.47-16.62-44.26-39.92-52-70.46-2.93-11.54-3.09-23.36-3.31-35.17-.73-40.71.21-81.42 0-122.12 0-3.17.15-6.34-.06-9.49-.16-2.49.44-3.36 3.16-3.3q16.36.4 32.72.35 38.72-.08 77.42-.35c2 0 2.86.51 3.42 2.49 5.42 19 12.42 37.4 22 54.75a166.06 166.06 0 0 0 45.57 52.62 178.65 178.65 0 0 0 212 3.3 167.28 167.28 0 0 0 45.86-49.09c11.7-18.92 19.77-39.36 25.35-60.82.64-2.49 1.62-3.21 4.18-3.17q51.2.74 102.4.26c1.84 0 2.57.31 2.57 2.41-.06 42.29.07 84.58-.11 126.87 0 10.54 0 21.1-1.77 31.59-3.46 21-12.37 39.37-26.08 55.49a117.08 117.08 0 0 1-49.68 34.52 104.82 104.82 0 0 1-36.12 6.65q-87.66.07-175.33 0ZM217.8 336.27c0-16.1-.36-40.08.51-64 .77-21 7.69-40.07 19.73-57.18 18.41-26.14 43.37-42.51 74.76-48.8a90.4 90.4 0 0 1 17.85-1.74q175.22.06 350.42.15c25.79 0 48.69 8.95 68.78 25 18.32 14.68 31.43 33.07 38.81 55.42a107.18 107.18 0 0 1 5.21 31.08c1.21 47.45 0 94.9.48 142.35 0 1.8-.35 2.4-2.29 2.4q-51.82 0-103.65.18c-1.82 0-2.4-.65-2.81-2.29A216.91 216.91 0 0 0 666.78 369c-14-26.28-32.87-48.16-57.78-64.64-21.31-14.1-44.51-23.71-69.8-27.49-50.5-7.56-96.54 3.56-137.35 34.56-28.11 21.35-47.34 49.23-59.1 82.39-3 8.47-5.93 17-8.39 25.6a2.22 2.22 0 0 1-2.55 2c-37.3-.42-74.59-.57-111.89-.23-2.18 0-2.15-1-2.14-2.55.02-24.88.02-49.64.02-82.37Z" class="cls-1" transform="translate(-165.39 -111.61)"/>
    <path d="M165.39 483.34h46.46c1.55 0 2.14.35 2.17 2 .48 20.73.26 41.46.07 62.19-.24 26.22-.13 52.44.47 78.66.28 11.88 1.53 23.51 5.11 34.87a116.19 116.19 0 0 0 30.62 49.32A120 120 0 0 0 314 743a104.55 104.55 0 0 0 17.38 1.55c75.76.62 151.52.53 227.28.38 33.55-.07 67.1.24 100.65.26 13.06 0 26.12-.25 39.07-2.37a113.12 113.12 0 0 0 55-25 123.38 123.38 0 0 0 40.22-61.22 110.23 110.23 0 0 0 4.31-28.75c1.15-47.2.05-94.4.43-141.6 0-2.44.64-3 3-3 15.15.12 30.3.07 45.46.07.84.85.76 1.93.74 3-.07 2.86 0 5.72 0 8.58.24 3.41 0 6.82 0 10.23v173.23c-.22 4.45.44 8.94-.36 13.38a143.63 143.63 0 0 1-8.82 30.67 139.37 139.37 0 0 1-19.86 31.91 116.66 116.66 0 0 1-26.15 23 109.61 109.61 0 0 1-39.72 15.6 46.2 46.2 0 0 0-4.68.8c-.3 0-.6.05-.9.06-14.63 1.06-29.28.47-43.91.48q-215.64.07-431.29 0c-3.05 0-6.14.24-9-1.23a110 110 0 0 1-27.49-7.84c-23.1-10.18-40.62-26.6-53.53-48.1a132.06 132.06 0 0 1-16-42M165.79 212.54a140.44 140.44 0 0 1 13.14-37c12.25-22.87 30.12-39.93 53.32-51.49a178.41 178.41 0 0 1 23.58-9.34 63.31 63.31 0 0 1 19.73-3.11q232.63.09 465.28 0a134.32 134.32 0 0 1 44.82 15.26A116.94 116.94 0 0 1 811 145.72a120.78 120.78 0 0 1 27.76 41.87c.49 1.24 1 2.47 1.54 3.68 3.36 8.9 5.21 18.18 7.14 27.45.24 14.14 0 28.28 0 42.42q.09 72.86 0 145.71c-.08 3.91.08 7.81.05 11.71 0 1.58-.44 2.6-2.44 2.59-15.11-.06-30.22 0-45.33 0-.49 0-1 .11-1.4-.32-.53-36.8.64-73.59.23-110.38-.16-14.14 0-28.32-1.34-42.41-2.29-24.72-12-46.35-28.23-65.09a121.49 121.49 0 0 0-46.23-33.58 112.26 112.26 0 0 0-43.26-8.77c-105.22.15-210.45-.21-315.68.24-10.65 0-21.31.2-32 .17-26.94-.05-50.87 8.69-71.84 25.25-21.87 17.27-36.35 39.55-42.93 66.75a112.34 112.34 0 0 0-2.91 24.73c-.6 37.46-.37 74.91-.12 112.37.06 9.58-.19 19.15-.23 28.72 0 1.53-.28 2.16-2 2.17-15.48 0-31 .14-46.45.23" class="cls-1" transform="translate(-165.39 -111.61)"/>
    <path d="M507.56 567.6c-63.32-.08-115.47-55.55-113.06-119.6 2.33-61.81 53.65-113.2 118.28-111.76 59.54 1.33 115 50 112.87 120.65-1.81 60.97-54.76 113.05-118.09 110.71Z" class="cls-1" transform="translate(-165.39 -111.61)"/>
    <path d="M539.15 412c-10.15 0-19.56-.34-28.95.44-6.7.56-13.45 1.19-19.86 3.27-12.2 4-18.78 13.11-21 25.27-2.27 12.49 1.13 23.52 10.37 32.55 5 4.84 15.07 7.26 17.78 7.38l38.87 1.69s16.15 0 24.22-.16c2.4-.05 3.09.77 3.06 3.15-.06 5.9.15 11.81.33 17.72 0 1.44-.28 2.06-1.89 2.09-13 .23-26 .73-38.93.79-12.74.06-25.45-.6-37.77-4.3-12.68-3.8-21.84-12.18-28.6-23.18a59.47 59.47 0 0 1 8.29-73.09c7.58-7.79 17.14-11.9 27.56-14.09 15.13-3.17 45.75-1.85 45.75-1.85l22 .42s3.63-.16 3.63 3.37c0 5.49-.07 11 0 16.47 0 1.86-.5 2.44-2.38 2.43-7.75-.07-15.49.03-22.48-.37Z" class="cls-2" transform="translate(-165.39 -111.61)"/>
    <path d="M337.33 325.26h61.28v22.04h-61.28z" class="cls-2"/>
  </g>
</svg>
