<svg width="182" height="54" viewBox="0 0 182 54" fill="none" xmlns="http://www.w3.org/2000/svg">
<path fill-rule="evenodd" clip-rule="evenodd" d="M175.257 54H6.74322C3.02675 54 0 50.9566 0 47.25V6.75C0 3.02993 3.02675 0 6.74322 0H175.257C178.97 0 182 3.02993 182 6.75V47.25C182 50.9566 178.97 54 175.257 54Z" fill="black"/>
<path fill-rule="evenodd" clip-rule="evenodd" d="M175.257 1.08067C178.374 1.08067 180.925 3.62918 180.925 6.75V47.25C180.925 50.3708 178.391 52.9193 175.257 52.9193H6.74322C3.62607 52.9193 1.07476 50.3708 1.07476 47.25V6.75C1.07476 3.62918 3.60933 1.08067 6.74322 1.08067H175.257ZM175.257 0H6.74322C3.02675 0 0 3.04339 0 6.75V47.25C0 50.9701 3.02675 54 6.74322 54H175.257C178.97 54 182 50.9701 182 47.25V6.75C182 3.04339 178.97 0 175.257 0Z" fill="#A6A6A6"/>
<path d="M95.8779 17.8629C94.6625 17.8629 93.638 17.4353 92.8277 16.5937C92.0242 15.7756 91.5755 14.6478 91.5956 13.4964C91.5956 12.2676 92.0108 11.2273 92.8277 10.4025C93.6346 9.56086 94.6592 9.1333 95.8745 9.1333C97.0765 9.1333 98.1011 9.56086 98.9247 10.4025C99.7417 11.2542 100.157 12.2945 100.157 13.4964C100.143 14.7286 99.7283 15.7688 98.9247 16.5903C98.1178 17.4387 97.0933 17.8629 95.8779 17.8629ZM59.7145 17.8629C58.5259 17.8629 57.4947 17.442 56.6509 16.6105C55.8139 15.7823 55.3887 14.7353 55.3887 13.4998C55.3887 12.2642 55.8139 11.2172 56.6509 10.389C57.4779 9.55749 58.5091 9.13667 59.7145 9.13667C60.3038 9.13667 60.8763 9.2545 61.4254 9.49353C61.9644 9.72582 62.403 10.0423 62.7278 10.4294L62.8082 10.5271L61.9008 11.4226L61.8071 11.3115C61.2948 10.6988 60.6084 10.3991 59.7011 10.3991C58.8908 10.3991 58.1844 10.6887 57.6018 11.261C57.0159 11.8367 56.7179 12.5908 56.7179 13.5031C56.7179 14.4155 57.0159 15.1696 57.6018 15.7453C58.1844 16.3176 58.8908 16.6071 59.7011 16.6071C60.5649 16.6071 61.2915 16.3176 61.8573 15.7453C62.1921 15.4086 62.3997 14.9373 62.4734 14.3414H59.5638V13.0823H63.7222L63.739 13.1968C63.7691 13.4089 63.7992 13.6277 63.7992 13.8297C63.7992 14.9912 63.451 15.9304 62.7613 16.6239C61.9778 17.4454 60.9533 17.8629 59.7145 17.8629ZM107.797 17.6844H106.515L102.588 11.3653L102.621 12.5033V17.6811H101.339V9.3151H102.802L102.842 9.37906L106.535 15.3312L106.502 14.1966V9.3151H107.797V17.6844ZM86.2419 17.6844H84.9428V10.5742H82.6895V9.3151H88.4919V10.5742H86.2385V17.6844H86.2419ZM81.6315 17.6844H80.3358V9.3151H81.6315V17.6844ZM74.3493 17.6844H73.0535V10.5742H70.8002V9.3151H76.6026V10.5742H74.3493V17.6844ZM69.9799 17.671H65.0113V9.3151H69.9799V10.5742H66.3103V12.8702H69.6217V14.1158H66.3103V16.4119H69.9799V17.671ZM93.7786 15.7284C94.3578 16.3109 95.0609 16.6038 95.8779 16.6038C96.7183 16.6038 97.4046 16.3176 97.9772 15.7284C98.5464 15.1561 98.8343 14.4054 98.8343 13.4998C98.8343 12.5941 98.5464 11.84 97.9805 11.2711C97.4013 10.6887 96.6948 10.3958 95.8812 10.3958C95.0408 10.3958 94.3545 10.6819 93.7853 11.2711C93.2161 11.8434 92.9282 12.5941 92.9282 13.4998C92.9282 14.4054 93.2127 15.1595 93.7786 15.7284Z" fill="white"/>
<path fill-rule="evenodd" clip-rule="evenodd" d="M91.4749 29.37C88.3109 29.37 85.7462 31.7838 85.7462 35.1134C85.7462 38.4126 88.3276 40.8567 91.4749 40.8567C94.6389 40.8567 97.2036 38.4261 97.2036 35.1134C97.2036 31.7838 94.6389 29.37 91.4749 29.37ZM91.4749 38.5809C89.7439 38.5809 88.254 37.14 88.254 35.0999C88.254 33.0294 89.7473 31.6188 91.4749 31.6188C93.2059 31.6188 94.6959 33.0294 94.6959 35.0999C94.6992 37.1535 93.2059 38.5809 91.4749 38.5809ZM78.9762 29.37C75.8121 29.37 73.2474 31.7838 73.2474 35.1134C73.2474 38.4126 75.8289 40.8567 78.9762 40.8567C82.1402 40.8567 84.7049 38.4261 84.7049 35.1134C84.7049 31.7838 82.1368 29.37 78.9762 29.37ZM78.9762 38.5809C77.2452 38.5809 75.7552 37.14 75.7552 35.0999C75.7552 33.0294 77.2485 31.6188 78.9762 31.6188C80.7072 31.6188 82.1971 33.0294 82.1971 35.0999C82.1971 37.1535 80.7072 38.5809 78.9762 38.5809ZM64.1036 31.124V33.5546H69.9059C69.7285 34.9181 69.2798 35.9247 68.5935 36.6148C67.743 37.47 66.4305 38.3991 64.117 38.3991C60.5511 38.3991 57.7621 35.5039 57.7621 31.9185C57.7621 28.3331 60.5511 25.4378 64.117 25.4378C66.0422 25.4378 67.445 26.202 68.4863 27.1783L70.2006 25.4546C68.7542 24.0609 66.829 22.9937 64.1303 22.9937C59.2387 22.9937 55.1338 26.9999 55.1338 31.905C55.1338 36.8236 59.2353 40.8163 64.1303 40.8163C66.7721 40.8163 68.7542 39.9478 70.3211 38.3116C71.9182 36.7057 72.4238 34.44 72.4238 32.612C72.4238 32.043 72.3803 31.5313 72.2899 31.097H64.1002C64.1036 31.0937 64.1036 31.124 64.1036 31.124ZM124.937 33.016C124.458 31.7266 123.011 29.3565 120.045 29.3565C117.105 29.3565 114.661 31.6828 114.661 35.0999C114.661 38.3251 117.078 40.8433 120.33 40.8433C122.941 40.8433 124.461 39.2374 125.087 38.2948L123.149 36.9885C122.506 37.948 121.612 38.5776 120.343 38.5776C119.061 38.5776 118.163 37.9918 117.567 36.837L125.204 33.6556C125.204 33.659 124.937 33.016 124.937 33.016ZM117.149 34.9349C117.088 32.7163 118.863 31.5885 120.132 31.5885C121.133 31.5885 121.967 32.0834 122.251 32.8039L117.149 34.9349ZM110.945 40.4999H113.452V23.6266H110.945V40.4999ZM106.826 30.6459H106.736C106.17 29.9692 105.095 29.3565 103.723 29.3565C100.873 29.3565 98.2483 31.8781 98.2483 35.1167C98.2483 38.3419 100.86 40.8332 103.723 40.8332C105.079 40.8332 106.17 40.2171 106.736 39.5269H106.826V40.3518C106.826 42.5434 105.661 43.7251 103.783 43.7251C102.246 43.7251 101.292 42.6141 100.903 41.6849L98.7237 42.6006C99.3498 44.1156 101.021 45.9908 103.779 45.9908C106.719 45.9908 109.21 44.2503 109.21 40.005V29.6999H106.84V30.6459C106.843 30.6459 106.826 30.6459 106.826 30.6459ZM103.947 38.5809C102.216 38.5809 100.769 37.1266 100.769 35.1167C100.769 33.09 102.216 31.6222 103.947 31.6222C105.661 31.6222 106.99 33.1069 106.99 35.1167C107.007 37.1266 105.664 38.5809 103.947 38.5809ZM136.679 23.6266H130.682V40.4999H133.19V34.1101H136.682C139.458 34.1101 142.186 32.0868 142.186 28.8751C142.186 25.6634 139.468 23.6266 136.679 23.6266ZM136.752 31.7535H133.187V25.963H136.752C138.631 25.963 139.692 27.5217 139.692 28.8582C139.692 30.1813 138.617 31.7535 136.752 31.7535ZM152.238 29.3397C150.416 29.3397 148.538 30.151 147.761 31.9185L149.984 32.8476C150.463 31.9185 151.34 31.602 152.268 31.602C153.567 31.602 154.879 32.3831 154.909 33.7768V33.9552C154.461 33.6994 153.476 33.3089 152.298 33.3089C149.897 33.3089 147.463 34.6286 147.463 37.103C147.463 39.3687 149.432 40.8231 151.625 40.8231C153.309 40.8231 154.236 40.0589 154.816 39.1734H154.906V40.4797H157.324V34.0158C157.324 31.0061 155.1 29.3397 152.238 29.3397ZM151.923 38.5809C151.103 38.5809 149.954 38.1769 149.954 37.14C149.954 35.8338 151.387 35.3389 152.609 35.3389C153.714 35.3389 154.237 35.5779 154.893 35.9079C154.712 37.4228 153.44 38.5675 151.923 38.5809ZM166.143 29.6999L163.263 37.0188H163.173L160.19 29.6999H157.491L161.967 39.9309L159.416 45.6171H162.028L168.915 29.6999H166.143ZM143.569 40.4999H146.077V23.6266H143.569V40.4999Z" fill="white"/>
<path fill-rule="evenodd" clip-rule="evenodd" d="M14.0092 10.1705C13.6208 10.5913 13.3965 11.2343 13.3965 12.076V41.9275C13.3965 42.7691 13.6208 43.4121 14.0226 43.8161L14.1264 43.907L30.7601 27.1818V26.8081L14.113 10.0796L14.0092 10.1705Z" fill="url(#paint0_linear_128_1023)"/>
<path fill-rule="evenodd" clip-rule="evenodd" d="M36.294 32.7735L30.7461 27.195V26.8045L36.294 21.2261L36.4146 21.3001L42.977 25.0505C44.8554 26.1144 44.8554 27.8717 42.977 28.949L36.4146 32.6994L36.294 32.7735Z" fill="url(#paint1_linear_128_1023)"/>
<path fill-rule="evenodd" clip-rule="evenodd" d="M36.4148 32.6996L30.7463 27L14.0088 43.8295C14.6215 44.4894 15.6494 44.5635 16.7978 43.9204L36.4148 32.6996Z" fill="url(#paint2_linear_128_1023)"/>
<path fill-rule="evenodd" clip-rule="evenodd" d="M36.4148 21.3003L16.7978 10.0963C15.6494 9.43646 14.6182 9.52736 14.0088 10.1872L30.7463 26.9999L36.4148 21.3003Z" fill="url(#paint3_linear_128_1023)"/>
<path opacity="0.2" fill-rule="evenodd" clip-rule="evenodd" d="M36.2946 32.5786L16.8115 43.7085C15.7233 44.338 14.7524 44.2943 14.1263 43.722L14.0225 43.8263L14.1263 43.9172C14.7524 44.4862 15.7233 44.5333 16.8115 43.9038L36.4286 32.6998L36.2946 32.5786Z" fill="black"/>
<path opacity="0.12" fill-rule="evenodd" clip-rule="evenodd" d="M42.977 28.754L36.2773 32.5784L36.3979 32.6996L42.9603 28.9493C43.9011 28.4106 44.3632 27.7036 44.3632 27C44.3063 27.6464 43.8275 28.2591 42.977 28.754Z" fill="black"/>
<path opacity="0.25" fill-rule="evenodd" clip-rule="evenodd" d="M16.7982 10.2916L42.9776 25.246C43.828 25.7274 44.3068 26.3569 44.3805 26.9999C44.3805 26.2963 43.9184 25.5893 42.9776 25.0507L16.7982 10.0963C14.9199 9.01566 13.3965 9.9179 13.3965 12.0759V12.2711C13.3965 10.1098 14.9199 9.22439 16.7982 10.2916Z" fill="white"/>
<defs>
<linearGradient id="paint0_linear_128_1023" x1="29.2681" y1="11.7539" x2="2.60446" y2="18.8196" gradientUnits="userSpaceOnUse">
<stop stop-color="#00A0FF"/>
<stop offset="0.00657" stop-color="#00A1FF"/>
<stop offset="0.2601" stop-color="#00BEFF"/>
<stop offset="0.5122" stop-color="#00D2FF"/>
<stop offset="0.7604" stop-color="#00DFFF"/>
<stop offset="1" stop-color="#00E3FF"/>
</linearGradient>
<linearGradient id="paint1_linear_128_1023" x1="45.4266" y1="26.9998" x2="12.9392" y2="26.9998" gradientUnits="userSpaceOnUse">
<stop stop-color="#FFE000"/>
<stop offset="0.4087" stop-color="#FFBD00"/>
<stop offset="0.7754" stop-color="#FFA500"/>
<stop offset="1" stop-color="#FF9C00"/>
</linearGradient>
<linearGradient id="paint2_linear_128_1023" x1="33.3325" y1="30.1014" x2="11.7687" y2="66.1966" gradientUnits="userSpaceOnUse">
<stop stop-color="#FF3A44"/>
<stop offset="1" stop-color="#C31162"/>
</linearGradient>
<linearGradient id="paint3_linear_128_1023" x1="9.7941" y1="0.241295" x2="19.4146" y2="16.362" gradientUnits="userSpaceOnUse">
<stop stop-color="#32A071"/>
<stop offset="0.0685" stop-color="#2DA771"/>
<stop offset="0.4762" stop-color="#15CF74"/>
<stop offset="0.8009" stop-color="#06E775"/>
<stop offset="1" stop-color="#00F076"/>
</linearGradient>
</defs>
</svg>
