<svg width="204" height="30" viewBox="0 0 204 30" fill="none" xmlns="http://www.w3.org/2000/svg">
<path d="M23.9382 9.24885C26.2353 9.24885 28.0891 9.9541 29.4996 11.3646C30.9235 12.7617 31.6355 14.5953 31.6355 16.8656V29.2981H26.3965V18.5582C26.3965 17.1477 26.0607 16.0663 25.389 15.314C24.7308 14.5617 23.7972 14.1856 22.5882 14.1856C21.3926 14.1856 20.4052 14.5685 19.6261 15.3342C18.847 16.0864 18.4574 17.1745 18.4574 18.5985V29.2981H13.1983V18.5582C13.1983 17.1477 12.8691 16.0663 12.2109 15.314C11.5527 14.5617 10.6123 14.1856 9.3899 14.1856C8.19433 14.1856 7.20698 14.5685 6.42785 15.3342C5.64872 16.0864 5.25915 17.1745 5.25915 18.5985V29.2981H0V9.77275H5.1181V12.0699C6.38083 10.1892 8.29508 9.24885 10.8609 9.24885C12.2714 9.24885 13.5341 9.54438 14.649 10.1355C15.764 10.7131 16.6506 11.5325 17.3089 12.5938C18.6522 10.3638 20.862 9.24885 23.9382 9.24885Z" fill="black"/>
<path d="M55.3105 20.9762C55.3105 22.4673 55.062 23.7904 54.5649 24.9457C54.0679 26.101 53.3828 27.0279 52.5096 27.7264C51.6499 28.4115 50.676 28.9287 49.5879 29.278C48.5132 29.6272 47.3445 29.8019 46.0818 29.8019C45.0877 29.8019 44.1407 29.6944 43.2406 29.4795C42.3406 29.2645 41.4943 28.9287 40.7017 28.472C39.9226 28.0018 39.2442 27.4309 38.6666 26.7592C38.1024 26.0741 37.6524 25.2412 37.3165 24.2606C36.9941 23.2665 36.8329 22.1717 36.8329 20.9762V9.77275H42.0921V20.5127C42.0921 22.0038 42.4548 23.1121 43.1802 23.8375C43.9056 24.5494 44.8728 24.9054 46.0818 24.9054C47.2908 24.9054 48.258 24.5494 48.9834 23.8375C49.7088 23.1121 50.0715 22.0038 50.0715 20.5127V9.77275H55.3105V20.9762Z" fill="black"/>
<path d="M65.9453 29.2981H60.6861V0.282101H65.9453V29.2981Z" fill="black"/>
<path d="M85.635 14.4475H78.5623V21.5807C78.5623 22.7225 78.831 23.5621 79.3683 24.0994C79.9057 24.6367 80.6109 24.9054 81.4841 24.9054C82.5319 24.9054 83.7543 24.4823 85.1514 23.636L87.0858 27.7465C85.1111 29.1167 82.955 29.8019 80.6176 29.8019C78.1996 29.8019 76.3727 29.1436 75.1368 27.8272C73.9144 26.4973 73.3032 24.5561 73.3032 22.0038V14.4475H69.5351V9.77275H73.3032V3.96955H78.5623V9.77275H85.635V14.4475Z" fill="black"/>
<path d="M95.5406 29.2981H90.2814V9.77275H95.5406V29.2981ZM90.5031 0.98735C91.1479 0.329117 91.9405 0 92.8808 0C93.8211 0 94.6137 0.329117 95.2585 0.98735C95.9167 1.64558 96.2458 2.44487 96.2458 3.3852C96.2458 4.32553 95.9167 5.1181 95.2585 5.7629C94.6137 6.4077 93.8211 6.7301 92.8808 6.7301C91.9405 6.7301 91.1479 6.4077 90.5031 5.7629C89.8583 5.1181 89.5359 4.32553 89.5359 3.3852C89.5359 2.43143 89.8583 1.63215 90.5031 0.98735Z" fill="black"/>
<path d="M112.459 9.24885C115.146 9.24885 117.396 10.2295 119.21 12.1908C121.023 14.152 121.93 16.5969 121.93 19.5254C121.93 22.4538 121.03 24.8987 119.23 26.86C117.43 28.8212 115.18 29.8019 112.48 29.8019C110.021 29.8019 108.073 28.9152 106.636 27.142V29.2981H101.498V0.282101H106.737V11.8079C108.174 10.1019 110.082 9.24885 112.459 9.24885ZM111.492 14.1453C110.014 14.1453 108.805 14.6558 107.865 15.6767C106.938 16.6842 106.475 17.9671 106.475 19.5254C106.475 21.0836 106.938 22.3732 107.865 23.3942C108.805 24.4017 110.014 24.9054 111.492 24.9054C113.01 24.9054 114.226 24.3949 115.139 23.374C116.066 22.3396 116.53 21.0568 116.53 19.5254C116.53 17.994 116.066 16.7178 115.139 15.6969C114.226 14.6625 113.01 14.1453 111.492 14.1453Z" fill="black"/>
<path d="M145.436 29.2981H140.298V27.142C138.86 28.9152 136.913 29.8019 134.454 29.8019C131.754 29.8019 129.504 28.8212 127.704 26.86C125.904 24.8987 125.004 22.4538 125.004 19.5254C125.004 16.5969 125.904 14.152 127.704 12.1908C129.504 10.2295 131.754 9.24885 134.454 9.24885C136.926 9.24885 138.874 10.1422 140.298 11.9288V9.77275H145.436V29.2981ZM135.422 14.1453C133.917 14.1453 132.701 14.6625 131.774 15.6969C130.847 16.7178 130.384 17.994 130.384 19.5254C130.384 21.0568 130.847 22.3396 131.774 23.374C132.701 24.3949 133.917 24.9054 135.422 24.9054C136.913 24.9054 138.122 24.4017 139.049 23.3942C139.989 22.3732 140.459 21.0836 140.459 19.5254C140.459 17.9671 139.989 16.6842 139.049 15.6767C138.122 14.6558 136.913 14.1453 135.422 14.1453Z" fill="black"/>
<path d="M161.828 9.24885C164.058 9.24885 165.879 9.9541 167.289 11.3646C168.713 12.7751 169.425 14.6088 169.425 16.8656V29.2981H164.166V18.5582C164.166 17.1477 163.837 16.0663 163.178 15.314C162.52 14.5617 161.58 14.1856 160.357 14.1856C159.162 14.1856 158.175 14.5685 157.395 15.3342C156.616 16.0864 156.227 17.1745 156.227 18.5985V29.2981H150.968V9.77275H156.086V12.0699C157.348 10.1892 159.263 9.24885 161.828 9.24885Z" fill="black"/>
<path d="M180.037 16.7245H181.891L187.392 9.77275H193.84L186.142 18.9612L193.9 29.2981H187.432L181.81 21.3993H180.037V29.2981H174.778V0.282101H180.037V16.7245Z" fill="black"/>
<path d="M203.84 0.298096V10.8981L198.54 10.8981V0.298096L203.84 0.298096Z" fill="#43D498"/>
<path d="M193.24 0.298096L203.84 0.298096V5.5981L193.24 5.5981V0.298096Z" fill="#43D498"/>
</svg>
